<svg width="900" height="506" xmlns="http://www.w3.org/2000/svg">
<polygon points="20.0,0.0 10.000000000000002,17.32050807568877 -9.999999999999996,17.320508075688775 -20.0,2.4492935982947065e-15 -10.000000000000009,-17.32050807568877 9.999999999999986,-17.32050807568878" fill="rgb(24,194,239)" stroke="none" />
<polygon points="50.0,0.0 40.0,17.32050807568877 20.000000000000004,17.320508075688775 10.0,2.4492935982947065e-15 19.999999999999993,-17.32050807568877 39.999999999999986,-17.32050807568878" fill="rgb(25,190,242)" stroke="none" />
<polygon points="80.0,0.0 70.0,17.32050807568877 50.0,17.320508075688775 40.0,2.4492935982947065e-15 49.99999999999999,-17.32050807568877 69.99999999999999,-17.32050807568878" fill="rgb(26,187,247)" stroke="none" />
<polygon points="110.0,0.0 100.0,17.32050807568877 80.0,17.320508075688775 70.0,2.4492935982947065e-15 79.99999999999999,-17.32050807568877 99.99999999999999,-17.32050807568878" fill="rgb(27,172,252)" stroke="none" />
<polygon points="140.0,0.0 130.0,17.32050807568877 110.0,17.320508075688775 100.0,2.4492935982947065e-15 109.99999999999999,-17.32050807568877 130.0,-17.32050807568878" fill="rgb(27,175,252)" stroke="none" />
<polygon points="170.0,0.0 160.0,17.32050807568877 140.0,17.320508075688775 130.0,2.4492935982947065e-15 140.0,-17.32050807568877 160.0,-17.32050807568878" fill="rgb(28,175,252)" stroke="none" />
<polygon points="200.0,0.0 190.0,17.32050807568877 170.0,17.320508075688775 160.0,2.4492935982947065e-15 170.0,-17.32050807568877 190.0,-17.32050807568878" fill="rgb(29,172,253)" stroke="none" />
<polygon points="230.0,0.0 220.0,17.32050807568877 200.0,17.320508075688775 190.0,2.4492935982947065e-15 200.0,-17.32050807568877 220.0,-17.32050807568878" fill="rgb(31,182,248)" stroke="none" />
<polygon points="260.0,0.0 250.0,17.32050807568877 230.0,17.320508075688775 220.0,2.4492935982947065e-15 230.0,-17.32050807568877 250.0,-17.32050807568878" fill="rgb(31,189,242)" stroke="none" />
<polygon points="290.0,0.0 280.0,17.32050807568877 260.0,17.320508075688775 250.0,2.4492935982947065e-15 260.0,-17.32050807568877 280.0,-17.32050807568878" fill="rgb(32,202,231)" stroke="none" />
<polygon points="320.0,0.0 310.0,17.32050807568877 290.0,17.320508075688775 280.0,2.4492935982947065e-15 290.0,-17.32050807568877 310.0,-17.32050807568878" fill="rgb(35,205,228)" stroke="none" />
<polygon points="350.0,0.0 340.0,17.32050807568877 320.0,17.320508075688775 310.0,2.4492935982947065e-15 320.0,-17.32050807568877 340.0,-17.32050807568878" fill="rgb(50,215,218)" stroke="none" />
<polygon points="380.0,0.0 370.0,17.32050807568877 350.0,17.320508075688775 340.0,2.4492935982947065e-15 350.0,-17.32050807568877 370.0,-17.32050807568878" fill="rgb(235,193,101)" stroke="none" />
<polygon points="410.0,0.0 400.0,17.32050807568877 380.0,17.320508075688775 370.0,2.4492935982947065e-15 380.0,-17.32050807568877 400.0,-17.32050807568878" fill="rgb(244,191,96)" stroke="none" />
<polygon points="440.0,0.0 430.0,17.32050807568877 410.0,17.320508075688775 400.0,2.4492935982947065e-15 410.0,-17.32050807568877 430.0,-17.32050807568878" fill="rgb(244,190,96)" stroke="none" />
<polygon points="470.0,0.0 460.0,17.32050807568877 440.0,17.320508075688775 430.0,2.4492935982947065e-15 440.0,-17.32050807568877 460.0,-17.32050807568878" fill="rgb(244,190,96)" stroke="none" />
<polygon points="500.0,0.0 490.0,17.32050807568877 470.0,17.320508075688775 460.0,2.4492935982947065e-15 470.0,-17.32050807568877 490.0,-17.32050807568878" fill="rgb(224,114,120)" stroke="none" />
<polygon points="530.0,0.0 520.0,17.32050807568877 500.0,17.320508075688775 490.0,2.4492935982947065e-15 500.0,-17.32050807568877 520.0,-17.32050807568878" fill="rgb(247,132,111)" stroke="none" />
<polygon points="560.0,0.0 550.0,17.32050807568877 530.0,17.320508075688775 520.0,2.4492935982947065e-15 530.0,-17.32050807568877 550.0,-17.32050807568878" fill="rgb(243,116,115)" stroke="none" />
<polygon points="590.0,0.0 580.0,17.32050807568877 560.0,17.320508075688775 550.0,2.4492935982947065e-15 560.0,-17.32050807568877 580.0,-17.32050807568878" fill="rgb(206,101,121)" stroke="none" />
<polygon points="620.0,0.0 610.0,17.32050807568877 590.0,17.320508075688775 580.0,2.4492935982947065e-15 590.0,-17.32050807568877 610.0,-17.32050807568878" fill="rgb(167,100,127)" stroke="none" />
<polygon points="650.0,0.0 640.0,17.32050807568877 620.0,17.320508075688775 610.0,2.4492935982947065e-15 620.0,-17.32050807568877 640.0,-17.32050807568878" fill="rgb(123,88,132)" stroke="none" />
<polygon points="680.0,0.0 670.0,17.32050807568877 650.0,17.320508075688775 640.0,2.4492935982947065e-15 650.0,-17.32050807568877 670.0,-17.32050807568878" fill="rgb(115,86,134)" stroke="none" />
<polygon points="710.0,0.0 700.0,17.32050807568877 680.0,17.320508075688775 670.0,2.4492935982947065e-15 680.0,-17.32050807568877 700.0,-17.32050807568878" fill="rgb(115,85,134)" stroke="none" />
<polygon points="740.0,0.0 730.0,17.32050807568877 710.0,17.320508075688775 700.0,2.4492935982947065e-15 710.0,-17.32050807568877 730.0,-17.32050807568878" fill="rgb(115,85,134)" stroke="none" />
<polygon points="770.0,0.0 760.0,17.32050807568877 740.0,17.320508075688775 730.0,2.4492935982947065e-15 740.0,-17.32050807568877 760.0,-17.32050807568878" fill="rgb(109,88,134)" stroke="none" />
<polygon points="800.0,0.0 790.0,17.32050807568877 770.0,17.320508075688775 760.0,2.4492935982947065e-15 770.0,-17.32050807568877 790.0,-17.32050807568878" fill="rgb(64,95,133)" stroke="none" />
<polygon points="830.0,0.0 820.0,17.32050807568877 800.0,17.320508075688775 790.0,2.4492935982947065e-15 800.0,-17.32050807568877 820.0,-17.32050807568878" fill="rgb(27,102,133)" stroke="none" />
<polygon points="860.0,0.0 850.0,17.32050807568877 830.0,17.320508075688775 820.0,2.4492935982947065e-15 830.0,-17.32050807568877 850.0,-17.32050807568878" fill="rgb(27,103,133)" stroke="none" />
<polygon points="890.0,0.0 880.0,17.32050807568877 860.0,17.320508075688775 850.0,2.4492935982947065e-15 860.0,-17.32050807568877 880.0,-17.32050807568878" fill="rgb(26,102,133)" stroke="none" />
<polygon points="35.0,34.0 25.0,51.32050807568877 5.0000000000000036,51.32050807568878 -5.0,34.0 4.999999999999991,16.67949192431123 24.999999999999986,16.67949192431122" fill="rgb(26,185,244)" stroke="none" />
<polygon points="65.0,34.0 55.0,51.32050807568877 35.0,51.32050807568878 25.0,34.0 34.99999999999999,16.67949192431123 54.999999999999986,16.67949192431122" fill="rgb(25,185,248)" stroke="none" />
<polygon points="95.0,34.0 85.0,51.32050807568877 65.0,51.32050807568878 55.0,34.0 64.99999999999999,16.67949192431123 84.99999999999999,16.67949192431122" fill="rgb(27,176,251)" stroke="none" />
<polygon points="125.0,34.0 115.0,51.32050807568877 95.0,51.32050807568878 85.0,34.0 94.99999999999999,16.67949192431123 114.99999999999999,16.67949192431122" fill="rgb(27,171,252)" stroke="none" />
<polygon points="155.0,34.0 145.0,51.32050807568877 125.0,51.32050807568878 115.0,34.0 124.99999999999999,16.67949192431123 145.0,16.67949192431122" fill="rgb(27,173,252)" stroke="none" />
<polygon points="185.0,34.0 175.0,51.32050807568877 155.0,51.32050807568878 145.0,34.0 155.0,16.67949192431123 175.0,16.67949192431122" fill="rgb(28,176,253)" stroke="none" />
<polygon points="215.0,34.0 205.0,51.32050807568877 185.0,51.32050807568878 175.0,34.0 185.0,16.67949192431123 205.0,16.67949192431122" fill="rgb(37,184,243)" stroke="none" />
<polygon points="245.0,34.0 235.0,51.32050807568877 215.0,51.32050807568878 205.0,34.0 215.0,16.67949192431123 235.0,16.67949192431122" fill="rgb(40,184,243)" stroke="none" />
<polygon points="275.0,34.0 265.0,51.32050807568877 245.0,51.32050807568878 235.0,34.0 245.0,16.67949192431123 265.0,16.67949192431122" fill="rgb(157,209,179)" stroke="none" />
<polygon points="305.0,34.0 295.0,51.32050807568877 275.0,51.32050807568878 265.0,34.0 275.0,16.67949192431123 295.0,16.67949192431122" fill="rgb(45,205,223)" stroke="none" />
<polygon points="335.0,34.0 325.0,51.32050807568877 305.0,51.32050807568878 295.0,34.0 305.0,16.67949192431123 325.0,16.67949192431122" fill="rgb(64,205,211)" stroke="none" />
<polygon points="365.0,34.0 355.0,51.32050807568877 335.0,51.32050807568878 325.0,34.0 335.0,16.67949192431123 355.0,16.67949192431122" fill="rgb(223,139,137)" stroke="none" />
<polygon points="395.0,34.0 385.0,51.32050807568877 365.0,51.32050807568878 355.0,34.0 365.0,16.67949192431123 385.0,16.67949192431122" fill="rgb(181,204,154)" stroke="none" />
<polygon points="425.0,34.0 415.0,51.32050807568877 395.0,51.32050807568878 385.0,34.0 395.0,16.67949192431123 415.0,16.67949192431122" fill="rgb(244,189,98)" stroke="none" />
<polygon points="455.0,34.0 445.0,51.32050807568877 425.0,51.32050807568878 415.0,34.0 425.0,16.67949192431123 445.0,16.67949192431122" fill="rgb(232,152,110)" stroke="none" />
<polygon points="485.0,34.0 475.0,51.32050807568877 455.0,51.32050807568878 445.0,34.0 455.0,16.67949192431123 475.0,16.67949192431122" fill="rgb(218,133,118)" stroke="none" />
<polygon points="515.0,34.0 505.0,51.32050807568877 485.0,51.32050807568878 475.0,34.0 485.0,16.67949192431123 505.0,16.67949192431122" fill="rgb(228,119,120)" stroke="none" />
<polygon points="545.0,34.0 535.0,51.32050807568877 515.0,51.32050807568878 505.0,34.0 515.0,16.67949192431123 535.0,16.67949192431122" fill="rgb(210,101,123)" stroke="none" />
<polygon points="575.0,34.0 565.0,51.32050807568877 545.0,51.32050807568878 535.0,34.0 545.0,16.67949192431123 565.0,16.67949192431122" fill="rgb(134,86,133)" stroke="none" />
<polygon points="605.0,34.0 595.0,51.32050807568877 575.0,51.32050807568878 565.0,34.0 575.0,16.67949192431123 595.0,16.67949192431122" fill="rgb(133,87,130)" stroke="none" />
<polygon points="635.0,34.0 625.0,51.32050807568877 605.0,51.32050807568878 595.0,34.0 605.0,16.67949192431123 625.0,16.67949192431122" fill="rgb(75,94,132)" stroke="none" />
<polygon points="665.0,34.0 655.0,51.32050807568877 635.0,51.32050807568878 625.0,34.0 635.0,16.67949192431123 655.0,16.67949192431122" fill="rgb(142,95,127)" stroke="none" />
<polygon points="695.0,34.0 685.0,51.32050807568877 665.0,51.32050807568878 655.0,34.0 665.0,16.67949192431123 685.0,16.67949192431122" fill="rgb(121,87,131)" stroke="none" />
<polygon points="725.0,34.0 715.0,51.32050807568877 695.0,51.32050807568878 685.0,34.0 695.0,16.67949192431123 715.0,16.67949192431122" fill="rgb(102,88,133)" stroke="none" />
<polygon points="755.0,34.0 745.0,51.32050807568877 725.0,51.32050807568878 715.0,34.0 725.0,16.67949192431123 745.0,16.67949192431122" fill="rgb(77,92,133)" stroke="none" />
<polygon points="785.0,34.0 775.0,51.32050807568877 755.0,51.32050807568878 745.0,34.0 755.0,16.67949192431123 775.0,16.67949192431122" fill="rgb(97,89,134)" stroke="none" />
<polygon points="815.0,34.0 805.0,51.32050807568877 785.0,51.32050807568878 775.0,34.0 785.0,16.67949192431123 805.0,16.67949192431122" fill="rgb(39,100,132)" stroke="none" />
<polygon points="845.0,34.0 835.0,51.32050807568877 815.0,51.32050807568878 805.0,34.0 815.0,16.67949192431123 835.0,16.67949192431122" fill="rgb(27,102,133)" stroke="none" />
<polygon points="875.0,34.0 865.0,51.32050807568877 845.0,51.32050807568878 835.0,34.0 845.0,16.67949192431123 865.0,16.67949192431122" fill="rgb(27,103,133)" stroke="none" />
<polygon points="905.0,34.0 895.0,51.32050807568877 875.0,51.32050807568878 865.0,34.0 875.0,16.67949192431123 895.0,16.67949192431122" fill="rgb(26,103,133)" stroke="none" />
<polygon points="20.0,68.0 10.000000000000002,85.32050807568876 -9.999999999999996,85.32050807568878 -20.0,68.0 -10.000000000000009,50.67949192431123 9.999999999999986,50.67949192431122" fill="rgb(26,182,248)" stroke="none" />
<polygon points="50.0,68.0 40.0,85.32050807568876 20.000000000000004,85.32050807568878 10.0,68.0 19.999999999999993,50.67949192431123 39.999999999999986,50.67949192431122" fill="rgb(27,178,251)" stroke="none" />
<polygon points="80.0,68.0 70.0,85.32050807568876 50.0,85.32050807568878 40.0,68.0 49.99999999999999,50.67949192431123 69.99999999999999,50.67949192431122" fill="rgb(26,181,250)" stroke="none" />
<polygon points="110.0,68.0 100.0,85.32050807568876 80.0,85.32050807568878 70.0,68.0 79.99999999999999,50.67949192431123 99.99999999999999,50.67949192431122" fill="rgb(28,175,251)" stroke="none" />
<polygon points="140.0,68.0 130.0,85.32050807568876 110.0,85.32050807568878 100.0,68.0 109.99999999999999,50.67949192431123 130.0,50.67949192431122" fill="rgb(89,207,205)" stroke="none" />
<polygon points="170.0,68.0 160.0,85.32050807568876 140.0,85.32050807568878 130.0,68.0 140.0,50.67949192431123 160.0,50.67949192431122" fill="rgb(27,174,251)" stroke="none" />
<polygon points="200.0,68.0 190.0,85.32050807568876 170.0,85.32050807568878 160.0,68.0 170.0,50.67949192431123 190.0,50.67949192431122" fill="rgb(39,190,239)" stroke="none" />
<polygon points="230.0,68.0 220.0,85.32050807568876 200.0,85.32050807568878 190.0,68.0 200.0,50.67949192431123 220.0,50.67949192431122" fill="rgb(79,222,208)" stroke="none" />
<polygon points="260.0,68.0 250.0,85.32050807568876 230.0,85.32050807568878 220.0,68.0 230.0,50.67949192431123 250.0,50.67949192431122" fill="rgb(83,220,204)" stroke="none" />
<polygon points="290.0,68.0 280.0,85.32050807568876 260.0,85.32050807568878 250.0,68.0 260.0,50.67949192431123 280.0,50.67949192431122" fill="rgb(64,208,213)" stroke="none" />
<polygon points="320.0,68.0 310.0,85.32050807568876 290.0,85.32050807568878 280.0,68.0 290.0,50.67949192431123 310.0,50.67949192431122" fill="rgb(155,174,161)" stroke="none" />
<polygon points="350.0,68.0 340.0,85.32050807568876 320.0,85.32050807568878 310.0,68.0 320.0,50.67949192431123 340.0,50.67949192431122" fill="rgb(223,141,130)" stroke="none" />
<polygon points="380.0,68.0 370.0,85.32050807568876 350.0,85.32050807568878 340.0,68.0 350.0,50.67949192431123 370.0,50.67949192431122" fill="rgb(197,175,138)" stroke="none" />
<polygon points="410.0,68.0 400.0,85.32050807568876 380.0,85.32050807568878 370.0,68.0 380.0,50.67949192431123 400.0,50.67949192431122" fill="rgb(186,133,127)" stroke="none" />
<polygon points="440.0,68.0 430.0,85.32050807568876 410.0,85.32050807568878 400.0,68.0 410.0,50.67949192431123 430.0,50.67949192431122" fill="rgb(205,145,114)" stroke="none" />
<polygon points="470.0,68.0 460.0,85.32050807568876 440.0,85.32050807568878 430.0,68.0 440.0,50.67949192431123 460.0,50.67949192431122" fill="rgb(213,147,110)" stroke="none" />
<polygon points="500.0,68.0 490.0,85.32050807568876 470.0,85.32050807568878 460.0,68.0 470.0,50.67949192431123 490.0,50.67949192431122" fill="rgb(154,102,123)" stroke="none" />
<polygon points="530.0,68.0 520.0,85.32050807568876 500.0,85.32050807568878 490.0,68.0 500.0,50.67949192431123 520.0,50.67949192431122" fill="rgb(159,96,127)" stroke="none" />
<polygon points="560.0,68.0 550.0,85.32050807568876 530.0,85.32050807568878 520.0,68.0 530.0,50.67949192431123 550.0,50.67949192431122" fill="rgb(98,90,134)" stroke="none" />
<polygon points="590.0,68.0 580.0,85.32050807568876 560.0,85.32050807568878 550.0,68.0 560.0,50.67949192431123 580.0,50.67949192431122" fill="rgb(66,95,133)" stroke="none" />
<polygon points="620.0,68.0 610.0,85.32050807568876 590.0,85.32050807568878 580.0,68.0 590.0,50.67949192431123 610.0,50.67949192431122" fill="rgb(113,87,134)" stroke="none" />
<polygon points="650.0,68.0 640.0,85.32050807568876 620.0,85.32050807568878 610.0,68.0 620.0,50.67949192431123 640.0,50.67949192431122" fill="rgb(66,96,134)" stroke="none" />
<polygon points="680.0,68.0 670.0,85.32050807568876 650.0,85.32050807568878 640.0,68.0 650.0,50.67949192431123 670.0,50.67949192431122" fill="rgb(95,94,131)" stroke="none" />
<polygon points="710.0,68.0 700.0,85.32050807568876 680.0,85.32050807568878 670.0,68.0 680.0,50.67949192431123 700.0,50.67949192431122" fill="rgb(82,94,131)" stroke="none" />
<polygon points="740.0,68.0 730.0,85.32050807568876 710.0,85.32050807568878 700.0,68.0 710.0,50.67949192431123 730.0,50.67949192431122" fill="rgb(75,94,135)" stroke="none" />
<polygon points="770.0,68.0 760.0,85.32050807568876 740.0,85.32050807568878 730.0,68.0 740.0,50.67949192431123 760.0,50.67949192431122" fill="rgb(35,100,133)" stroke="none" />
<polygon points="800.0,68.0 790.0,85.32050807568876 770.0,85.32050807568878 760.0,68.0 770.0,50.67949192431123 790.0,50.67949192431122" fill="rgb(30,102,132)" stroke="none" />
<polygon points="830.0,68.0 820.0,85.32050807568876 800.0,85.32050807568878 790.0,68.0 800.0,50.67949192431123 820.0,50.67949192431122" fill="rgb(26,103,133)" stroke="none" />
<polygon points="860.0,68.0 850.0,85.32050807568876 830.0,85.32050807568878 820.0,68.0 830.0,50.67949192431123 850.0,50.67949192431122" fill="rgb(26,104,134)" stroke="none" />
<polygon points="890.0,68.0 880.0,85.32050807568876 860.0,85.32050807568878 850.0,68.0 860.0,50.67949192431123 880.0,50.67949192431122" fill="rgb(27,104,134)" stroke="none" />
<polygon points="35.0,102.0 25.0,119.32050807568876 5.0000000000000036,119.32050807568878 -5.0,102.0 4.999999999999991,84.67949192431124 24.999999999999986,84.67949192431122" fill="rgb(34,196,235)" stroke="none" />
<polygon points="65.0,102.0 55.0,119.32050807568876 35.0,119.32050807568878 25.0,102.0 34.99999999999999,84.67949192431124 54.999999999999986,84.67949192431122" fill="rgb(28,175,253)" stroke="none" />
<polygon points="95.0,102.0 85.0,119.32050807568876 65.0,119.32050807568878 55.0,102.0 64.99999999999999,84.67949192431124 84.99999999999999,84.67949192431122" fill="rgb(28,177,253)" stroke="none" />
<polygon points="125.0,102.0 115.0,119.32050807568876 95.0,119.32050807568878 85.0,102.0 94.99999999999999,84.67949192431124 114.99999999999999,84.67949192431122" fill="rgb(28,175,253)" stroke="none" />
<polygon points="155.0,102.0 145.0,119.32050807568876 125.0,119.32050807568878 115.0,102.0 124.99999999999999,84.67949192431124 145.0,84.67949192431122" fill="rgb(122,185,182)" stroke="none" />
<polygon points="185.0,102.0 175.0,119.32050807568876 155.0,119.32050807568878 145.0,102.0 155.0,84.67949192431124 175.0,84.67949192431122" fill="rgb(43,177,238)" stroke="none" />
<polygon points="215.0,102.0 205.0,119.32050807568876 185.0,119.32050807568878 175.0,102.0 185.0,84.67949192431124 205.0,84.67949192431122" fill="rgb(27,188,244)" stroke="none" />
<polygon points="245.0,102.0 235.0,119.32050807568876 215.0,119.32050807568878 205.0,102.0 215.0,84.67949192431124 235.0,84.67949192431122" fill="rgb(71,220,209)" stroke="none" />
<polygon points="275.0,102.0 265.0,119.32050807568876 245.0,119.32050807568878 235.0,102.0 245.0,84.67949192431124 265.0,84.67949192431122" fill="rgb(119,206,186)" stroke="none" />
<polygon points="305.0,102.0 295.0,119.32050807568876 275.0,119.32050807568878 265.0,102.0 275.0,84.67949192431124 295.0,84.67949192431122" fill="rgb(116,197,187)" stroke="none" />
<polygon points="335.0,102.0 325.0,119.32050807568876 305.0,119.32050807568878 295.0,102.0 305.0,84.67949192431124 325.0,84.67949192431122" fill="rgb(197,172,143)" stroke="none" />
<polygon points="365.0,102.0 355.0,119.32050807568876 335.0,119.32050807568878 325.0,102.0 335.0,84.67949192431124 355.0,84.67949192431122" fill="rgb(233,145,117)" stroke="none" />
<polygon points="395.0,102.0 385.0,119.32050807568876 365.0,119.32050807568878 355.0,102.0 365.0,84.67949192431124 385.0,84.67949192431122" fill="rgb(159,102,126)" stroke="none" />
<polygon points="425.0,102.0 415.0,119.32050807568876 395.0,119.32050807568878 385.0,102.0 395.0,84.67949192431124 415.0,84.67949192431122" fill="rgb(208,114,119)" stroke="none" />
<polygon points="455.0,102.0 445.0,119.32050807568876 425.0,119.32050807568878 415.0,102.0 425.0,84.67949192431124 445.0,84.67949192431122" fill="rgb(171,114,122)" stroke="none" />
<polygon points="485.0,102.0 475.0,119.32050807568876 455.0,119.32050807568878 445.0,102.0 455.0,84.67949192431124 475.0,84.67949192431122" fill="rgb(184,105,120)" stroke="none" />
<polygon points="515.0,102.0 505.0,119.32050807568876 485.0,119.32050807568878 475.0,102.0 485.0,84.67949192431124 505.0,84.67949192431122" fill="rgb(230,114,115)" stroke="none" />
<polygon points="545.0,102.0 535.0,119.32050807568876 515.0,119.32050807568878 505.0,102.0 515.0,84.67949192431124 535.0,84.67949192431122" fill="rgb(235,104,119)" stroke="none" />
<polygon points="575.0,102.0 565.0,119.32050807568876 545.0,119.32050807568878 535.0,102.0 545.0,84.67949192431124 565.0,84.67949192431122" fill="rgb(127,85,135)" stroke="none" />
<polygon points="605.0,102.0 595.0,119.32050807568876 575.0,119.32050807568878 565.0,102.0 575.0,84.67949192431124 595.0,84.67949192431122" fill="rgb(114,92,129)" stroke="none" />
<polygon points="635.0,102.0 625.0,119.32050807568876 605.0,119.32050807568878 595.0,102.0 605.0,84.67949192431124 625.0,84.67949192431122" fill="rgb(29,103,133)" stroke="none" />
<polygon points="665.0,102.0 655.0,119.32050807568876 635.0,119.32050807568878 625.0,102.0 635.0,84.67949192431124 655.0,84.67949192431122" fill="rgb(31,102,132)" stroke="none" />
<polygon points="695.0,102.0 685.0,119.32050807568876 665.0,119.32050807568878 655.0,102.0 665.0,84.67949192431124 685.0,84.67949192431122" fill="rgb(58,96,134)" stroke="none" />
<polygon points="725.0,102.0 715.0,119.32050807568876 695.0,119.32050807568878 685.0,102.0 695.0,84.67949192431124 715.0,84.67949192431122" fill="rgb(37,101,134)" stroke="none" />
<polygon points="755.0,102.0 745.0,119.32050807568876 725.0,119.32050807568878 715.0,102.0 725.0,84.67949192431124 745.0,84.67949192431122" fill="rgb(32,102,134)" stroke="none" />
<polygon points="785.0,102.0 775.0,119.32050807568876 755.0,119.32050807568878 745.0,102.0 755.0,84.67949192431124 775.0,84.67949192431122" fill="rgb(27,103,133)" stroke="none" />
<polygon points="815.0,102.0 805.0,119.32050807568876 785.0,119.32050807568878 775.0,102.0 785.0,84.67949192431124 805.0,84.67949192431122" fill="rgb(26,102,133)" stroke="none" />
<polygon points="845.0,102.0 835.0,119.32050807568876 815.0,119.32050807568878 805.0,102.0 815.0,84.67949192431124 835.0,84.67949192431122" fill="rgb(26,103,133)" stroke="none" />
<polygon points="875.0,102.0 865.0,119.32050807568876 845.0,119.32050807568878 835.0,102.0 845.0,84.67949192431124 865.0,84.67949192431122" fill="rgb(27,102,133)" stroke="none" />
<polygon points="905.0,102.0 895.0,119.32050807568876 875.0,119.32050807568878 865.0,102.0 875.0,84.67949192431124 895.0,84.67949192431122" fill="rgb(26,104,134)" stroke="none" />
<polygon points="20.0,136.0 10.000000000000002,153.32050807568876 -9.999999999999996,153.32050807568876 -20.0,136.0 -10.000000000000009,118.67949192431124 9.999999999999986,118.67949192431122" fill="rgb(67,220,220)" stroke="none" />
<polygon points="50.0,136.0 40.0,153.32050807568876 20.000000000000004,153.32050807568876 10.0,136.0 19.999999999999993,118.67949192431124 39.999999999999986,118.67949192431122" fill="rgb(28,178,251)" stroke="none" />
<polygon points="80.0,136.0 70.0,153.32050807568876 50.0,153.32050807568876 40.0,136.0 49.99999999999999,118.67949192431124 69.99999999999999,118.67949192431122" fill="rgb(27,176,252)" stroke="none" />
<polygon points="110.0,136.0 100.0,153.32050807568876 80.0,153.32050807568876 70.0,136.0 79.99999999999999,118.67949192431124 99.99999999999999,118.67949192431122" fill="rgb(28,175,252)" stroke="none" />
<polygon points="140.0,136.0 130.0,153.32050807568876 110.0,153.32050807568876 100.0,136.0 109.99999999999999,118.67949192431124 130.0,118.67949192431122" fill="rgb(28,177,251)" stroke="none" />
<polygon points="170.0,136.0 160.0,153.32050807568876 140.0,153.32050807568876 130.0,136.0 140.0,118.67949192431124 160.0,118.67949192431122" fill="rgb(145,189,165)" stroke="none" />
<polygon points="200.0,136.0 190.0,153.32050807568876 170.0,153.32050807568876 160.0,136.0 170.0,118.67949192431124 190.0,118.67949192431122" fill="rgb(89,202,196)" stroke="none" />
<polygon points="230.0,136.0 220.0,153.32050807568876 200.0,153.32050807568876 190.0,136.0 200.0,118.67949192431124 220.0,118.67949192431122" fill="rgb(71,195,208)" stroke="none" />
<polygon points="260.0,136.0 250.0,153.32050807568876 230.0,153.32050807568876 220.0,136.0 230.0,118.67949192431124 250.0,118.67949192431122" fill="rgb(159,184,165)" stroke="none" />
<polygon points="290.0,136.0 280.0,153.32050807568876 260.0,153.32050807568876 250.0,136.0 260.0,118.67949192431124 280.0,118.67949192431122" fill="rgb(218,159,134)" stroke="none" />
<polygon points="320.0,136.0 310.0,153.32050807568876 290.0,153.32050807568876 280.0,136.0 290.0,118.67949192431124 310.0,118.67949192431122" fill="rgb(239,129,118)" stroke="none" />
<polygon points="350.0,136.0 340.0,153.32050807568876 320.0,153.32050807568876 310.0,136.0 320.0,118.67949192431124 340.0,118.67949192431122" fill="rgb(238,114,114)" stroke="none" />
<polygon points="380.0,136.0 370.0,153.32050807568876 350.0,153.32050807568876 340.0,136.0 350.0,118.67949192431124 370.0,118.67949192431122" fill="rgb(225,109,116)" stroke="none" />
<polygon points="410.0,136.0 400.0,153.32050807568876 380.0,153.32050807568876 370.0,136.0 380.0,118.67949192431124 400.0,118.67949192431122" fill="rgb(161,92,125)" stroke="none" />
<polygon points="440.0,136.0 430.0,153.32050807568876 410.0,153.32050807568876 400.0,136.0 410.0,118.67949192431124 430.0,118.67949192431122" fill="rgb(218,104,118)" stroke="none" />
<polygon points="470.0,136.0 460.0,153.32050807568876 440.0,153.32050807568876 430.0,136.0 440.0,118.67949192431124 460.0,118.67949192431122" fill="rgb(170,92,126)" stroke="none" />
<polygon points="500.0,136.0 490.0,153.32050807568876 470.0,153.32050807568876 460.0,136.0 470.0,118.67949192431124 490.0,118.67949192431122" fill="rgb(147,91,128)" stroke="none" />
<polygon points="530.0,136.0 520.0,153.32050807568876 500.0,153.32050807568876 490.0,136.0 500.0,118.67949192431124 520.0,118.67949192431122" fill="rgb(160,94,125)" stroke="none" />
<polygon points="560.0,136.0 550.0,153.32050807568876 530.0,153.32050807568876 520.0,136.0 530.0,118.67949192431124 550.0,118.67949192431122" fill="rgb(153,92,126)" stroke="none" />
<polygon points="590.0,136.0 580.0,153.32050807568876 560.0,153.32050807568876 550.0,136.0 560.0,118.67949192431124 580.0,118.67949192431122" fill="rgb(133,87,130)" stroke="none" />
<polygon points="620.0,136.0 610.0,153.32050807568876 590.0,153.32050807568876 580.0,136.0 590.0,118.67949192431124 610.0,118.67949192431122" fill="rgb(123,87,133)" stroke="none" />
<polygon points="650.0,136.0 640.0,153.32050807568876 620.0,153.32050807568876 610.0,136.0 620.0,118.67949192431124 640.0,118.67949192431122" fill="rgb(46,98,132)" stroke="none" />
<polygon points="680.0,136.0 670.0,153.32050807568876 650.0,153.32050807568876 640.0,136.0 650.0,118.67949192431124 670.0,118.67949192431122" fill="rgb(34,101,131)" stroke="none" />
<polygon points="710.0,136.0 700.0,153.32050807568876 680.0,153.32050807568876 670.0,136.0 680.0,118.67949192431124 700.0,118.67949192431122" fill="rgb(27,102,133)" stroke="none" />
<polygon points="740.0,136.0 730.0,153.32050807568876 710.0,153.32050807568876 700.0,136.0 710.0,118.67949192431124 730.0,118.67949192431122" fill="rgb(27,104,134)" stroke="none" />
<polygon points="770.0,136.0 760.0,153.32050807568876 740.0,153.32050807568876 730.0,136.0 740.0,118.67949192431124 760.0,118.67949192431122" fill="rgb(26,103,133)" stroke="none" />
<polygon points="800.0,136.0 790.0,153.32050807568876 770.0,153.32050807568876 760.0,136.0 770.0,118.67949192431124 790.0,118.67949192431122" fill="rgb(26,103,133)" stroke="none" />
<polygon points="830.0,136.0 820.0,153.32050807568876 800.0,153.32050807568876 790.0,136.0 800.0,118.67949192431124 820.0,118.67949192431122" fill="rgb(26,103,133)" stroke="none" />
<polygon points="860.0,136.0 850.0,153.32050807568876 830.0,153.32050807568876 820.0,136.0 830.0,118.67949192431124 850.0,118.67949192431122" fill="rgb(26,103,133)" stroke="none" />
<polygon points="890.0,136.0 880.0,153.32050807568876 860.0,153.32050807568876 850.0,136.0 860.0,118.67949192431124 880.0,118.67949192431122" fill="rgb(26,102,133)" stroke="none" />
<polygon points="35.0,170.0 25.0,187.32050807568876 5.0000000000000036,187.32050807568876 -5.0,170.0 4.999999999999991,152.67949192431124 24.999999999999986,152.6794919243112" fill="rgb(66,221,219)" stroke="none" />
<polygon points="65.0,170.0 55.0,187.32050807568876 35.0,187.32050807568876 25.0,170.0 34.99999999999999,152.67949192431124 54.999999999999986,152.6794919243112" fill="rgb(50,203,231)" stroke="none" />
<polygon points="95.0,170.0 85.0,187.32050807568876 65.0,187.32050807568876 55.0,170.0 64.99999999999999,152.67949192431124 84.99999999999999,152.6794919243112" fill="rgb(37,191,237)" stroke="none" />
<polygon points="125.0,170.0 115.0,187.32050807568876 95.0,187.32050807568876 85.0,170.0 94.99999999999999,152.67949192431124 114.99999999999999,152.6794919243112" fill="rgb(55,207,215)" stroke="none" />
<polygon points="155.0,170.0 145.0,187.32050807568876 125.0,187.32050807568876 115.0,170.0 124.99999999999999,152.67949192431124 145.0,152.6794919243112" fill="rgb(49,209,219)" stroke="none" />
<polygon points="185.0,170.0 175.0,187.32050807568876 155.0,187.32050807568876 145.0,170.0 155.0,152.67949192431124 175.0,152.6794919243112" fill="rgb(86,210,195)" stroke="none" />
<polygon points="215.0,170.0 205.0,187.32050807568876 185.0,187.32050807568876 175.0,170.0 185.0,152.67949192431124 205.0,152.6794919243112" fill="rgb(118,215,182)" stroke="none" />
<polygon points="245.0,170.0 235.0,187.32050807568876 215.0,187.32050807568876 205.0,170.0 215.0,152.67949192431124 235.0,152.6794919243112" fill="rgb(126,216,187)" stroke="none" />
<polygon points="275.0,170.0 265.0,187.32050807568876 245.0,187.32050807568876 235.0,170.0 245.0,152.67949192431124 265.0,152.6794919243112" fill="rgb(174,143,134)" stroke="none" />
<polygon points="305.0,170.0 295.0,187.32050807568876 275.0,187.32050807568876 265.0,170.0 275.0,152.67949192431124 295.0,152.6794919243112" fill="rgb(227,149,121)" stroke="none" />
<polygon points="335.0,170.0 325.0,187.32050807568876 305.0,187.32050807568876 295.0,170.0 305.0,152.67949192431124 325.0,152.6794919243112" fill="rgb(187,91,123)" stroke="none" />
<polygon points="365.0,170.0 355.0,187.32050807568876 335.0,187.32050807568876 325.0,170.0 335.0,152.67949192431124 355.0,152.6794919243112" fill="rgb(174,92,124)" stroke="none" />
<polygon points="395.0,170.0 385.0,187.32050807568876 365.0,187.32050807568876 355.0,170.0 365.0,152.67949192431124 385.0,152.6794919243112" fill="rgb(234,104,121)" stroke="none" />
<polygon points="425.0,170.0 415.0,187.32050807568876 395.0,187.32050807568876 385.0,170.0 395.0,152.67949192431124 415.0,152.6794919243112" fill="rgb(127,94,128)" stroke="none" />
<polygon points="455.0,170.0 445.0,187.32050807568876 425.0,187.32050807568876 415.0,170.0 425.0,152.67949192431124 445.0,152.6794919243112" fill="rgb(138,87,131)" stroke="none" />
<polygon points="485.0,170.0 475.0,187.32050807568876 455.0,187.32050807568876 445.0,170.0 455.0,152.67949192431124 475.0,152.6794919243112" fill="rgb(130,85,132)" stroke="none" />
<polygon points="515.0,170.0 505.0,187.32050807568876 485.0,187.32050807568876 475.0,170.0 485.0,152.67949192431124 505.0,152.6794919243112" fill="rgb(107,86,135)" stroke="none" />
<polygon points="545.0,170.0 535.0,187.32050807568876 515.0,187.32050807568876 505.0,170.0 515.0,152.67949192431124 535.0,152.6794919243112" fill="rgb(107,87,134)" stroke="none" />
<polygon points="575.0,170.0 565.0,187.32050807568876 545.0,187.32050807568876 535.0,170.0 545.0,152.67949192431124 565.0,152.6794919243112" fill="rgb(79,94,133)" stroke="none" />
<polygon points="605.0,170.0 595.0,187.32050807568876 575.0,187.32050807568876 565.0,170.0 575.0,152.67949192431124 595.0,152.6794919243112" fill="rgb(68,95,133)" stroke="none" />
<polygon points="635.0,170.0 625.0,187.32050807568876 605.0,187.32050807568876 595.0,170.0 605.0,152.67949192431124 625.0,152.6794919243112" fill="rgb(62,96,132)" stroke="none" />
<polygon points="665.0,170.0 655.0,187.32050807568876 635.0,187.32050807568876 625.0,170.0 635.0,152.67949192431124 655.0,152.6794919243112" fill="rgb(30,102,132)" stroke="none" />
<polygon points="695.0,170.0 685.0,187.32050807568876 665.0,187.32050807568876 655.0,170.0 665.0,152.67949192431124 685.0,152.6794919243112" fill="rgb(27,102,132)" stroke="none" />
<polygon points="725.0,170.0 715.0,187.32050807568876 695.0,187.32050807568876 685.0,170.0 695.0,152.67949192431124 715.0,152.6794919243112" fill="rgb(27,104,134)" stroke="none" />
<polygon points="755.0,170.0 745.0,187.32050807568876 725.0,187.32050807568876 715.0,170.0 725.0,152.67949192431124 745.0,152.6794919243112" fill="rgb(26,102,133)" stroke="none" />
<polygon points="785.0,170.0 775.0,187.32050807568876 755.0,187.32050807568876 745.0,170.0 755.0,152.67949192431124 775.0,152.6794919243112" fill="rgb(26,103,134)" stroke="none" />
<polygon points="815.0,170.0 805.0,187.32050807568876 785.0,187.32050807568876 775.0,170.0 785.0,152.67949192431124 805.0,152.6794919243112" fill="rgb(26,103,133)" stroke="none" />
<polygon points="845.0,170.0 835.0,187.32050807568876 815.0,187.32050807568876 805.0,170.0 815.0,152.67949192431124 835.0,152.6794919243112" fill="rgb(27,102,133)" stroke="none" />
<polygon points="875.0,170.0 865.0,187.32050807568876 845.0,187.32050807568876 835.0,170.0 845.0,152.67949192431124 865.0,152.6794919243112" fill="rgb(27,103,133)" stroke="none" />
<polygon points="905.0,170.0 895.0,187.32050807568876 875.0,187.32050807568876 865.0,170.0 875.0,152.67949192431124 895.0,152.6794919243112" fill="rgb(27,103,134)" stroke="none" />
<polygon points="20.0,204.0 10.000000000000002,221.32050807568876 -9.999999999999996,221.32050807568876 -20.0,204.0 -10.000000000000009,186.67949192431124 9.999999999999986,186.6794919243112" fill="rgb(67,221,217)" stroke="none" />
<polygon points="50.0,204.0 40.0,221.32050807568876 20.000000000000004,221.32050807568876 10.0,204.0 19.999999999999993,186.67949192431124 39.999999999999986,186.6794919243112" fill="rgb(66,222,217)" stroke="none" />
<polygon points="80.0,204.0 70.0,221.32050807568876 50.0,221.32050807568876 40.0,204.0 49.99999999999999,186.67949192431124 69.99999999999999,186.6794919243112" fill="rgb(80,220,208)" stroke="none" />
<polygon points="110.0,204.0 100.0,221.32050807568876 80.0,221.32050807568876 70.0,204.0 79.99999999999999,186.67949192431124 99.99999999999999,186.6794919243112" fill="rgb(233,115,133)" stroke="none" />
<polygon points="140.0,204.0 130.0,221.32050807568876 110.0,221.32050807568876 100.0,204.0 109.99999999999999,186.67949192431124 130.0,186.6794919243112" fill="rgb(111,204,189)" stroke="none" />
<polygon points="170.0,204.0 160.0,221.32050807568876 140.0,221.32050807568876 130.0,204.0 140.0,186.67949192431124 160.0,186.6794919243112" fill="rgb(166,144,146)" stroke="none" />
<polygon points="200.0,204.0 190.0,221.32050807568876 170.0,221.32050807568876 160.0,204.0 170.0,186.67949192431124 190.0,186.6794919243112" fill="rgb(164,101,127)" stroke="none" />
<polygon points="230.0,204.0 220.0,221.32050807568876 200.0,221.32050807568876 190.0,204.0 200.0,186.67949192431124 220.0,186.6794919243112" fill="rgb(215,185,121)" stroke="none" />
<polygon points="260.0,204.0 250.0,221.32050807568876 230.0,221.32050807568876 220.0,204.0 230.0,186.67949192431124 250.0,186.6794919243112" fill="rgb(244,152,109)" stroke="none" />
<polygon points="290.0,204.0 280.0,221.32050807568876 260.0,221.32050807568876 250.0,204.0 260.0,186.67949192431124 280.0,186.6794919243112" fill="rgb(217,129,115)" stroke="none" />
<polygon points="320.0,204.0 310.0,221.32050807568876 290.0,221.32050807568876 280.0,204.0 290.0,186.67949192431124 310.0,186.6794919243112" fill="rgb(122,103,126)" stroke="none" />
<polygon points="350.0,204.0 340.0,221.32050807568876 320.0,221.32050807568876 310.0,204.0 320.0,186.67949192431124 340.0,186.6794919243112" fill="rgb(70,97,130)" stroke="none" />
<polygon points="380.0,204.0 370.0,221.32050807568876 350.0,221.32050807568876 340.0,204.0 350.0,186.67949192431124 370.0,186.6794919243112" fill="rgb(47,99,131)" stroke="none" />
<polygon points="410.0,204.0 400.0,221.32050807568876 380.0,221.32050807568876 370.0,204.0 380.0,186.67949192431124 400.0,186.6794919243112" fill="rgb(66,101,130)" stroke="none" />
<polygon points="440.0,204.0 430.0,221.32050807568876 410.0,221.32050807568876 400.0,204.0 410.0,186.67949192431124 430.0,186.6794919243112" fill="rgb(27,103,133)" stroke="none" />
<polygon points="470.0,204.0 460.0,221.32050807568876 440.0,221.32050807568876 430.0,204.0 440.0,186.67949192431124 460.0,186.6794919243112" fill="rgb(52,97,133)" stroke="none" />
<polygon points="500.0,204.0 490.0,221.32050807568876 470.0,221.32050807568876 460.0,204.0 470.0,186.67949192431124 490.0,186.6794919243112" fill="rgb(37,100,130)" stroke="none" />
<polygon points="530.0,204.0 520.0,221.32050807568876 500.0,221.32050807568876 490.0,204.0 500.0,186.67949192431124 520.0,186.6794919243112" fill="rgb(42,100,132)" stroke="none" />
<polygon points="560.0,204.0 550.0,221.32050807568876 530.0,221.32050807568876 520.0,204.0 530.0,186.67949192431124 550.0,186.6794919243112" fill="rgb(50,99,133)" stroke="none" />
<polygon points="590.0,204.0 580.0,221.32050807568876 560.0,221.32050807568876 550.0,204.0 560.0,186.67949192431124 580.0,186.6794919243112" fill="rgb(28,103,131)" stroke="none" />
<polygon points="620.0,204.0 610.0,221.32050807568876 590.0,221.32050807568876 580.0,204.0 590.0,186.67949192431124 610.0,186.6794919243112" fill="rgb(27,103,133)" stroke="none" />
<polygon points="650.0,204.0 640.0,221.32050807568876 620.0,221.32050807568876 610.0,204.0 620.0,186.67949192431124 640.0,186.6794919243112" fill="rgb(27,103,133)" stroke="none" />
<polygon points="680.0,204.0 670.0,221.32050807568876 650.0,221.32050807568876 640.0,204.0 650.0,186.67949192431124 670.0,186.6794919243112" fill="rgb(26,103,133)" stroke="none" />
<polygon points="710.0,204.0 700.0,221.32050807568876 680.0,221.32050807568876 670.0,204.0 680.0,186.67949192431124 700.0,186.6794919243112" fill="rgb(26,103,133)" stroke="none" />
<polygon points="740.0,204.0 730.0,221.32050807568876 710.0,221.32050807568876 700.0,204.0 710.0,186.67949192431124 730.0,186.6794919243112" fill="rgb(26,103,133)" stroke="none" />
<polygon points="770.0,204.0 760.0,221.32050807568876 740.0,221.32050807568876 730.0,204.0 740.0,186.67949192431124 760.0,186.6794919243112" fill="rgb(26,102,133)" stroke="none" />
<polygon points="800.0,204.0 790.0,221.32050807568876 770.0,221.32050807568876 760.0,204.0 770.0,186.67949192431124 790.0,186.6794919243112" fill="rgb(27,103,133)" stroke="none" />
<polygon points="830.0,204.0 820.0,221.32050807568876 800.0,221.32050807568876 790.0,204.0 800.0,186.67949192431124 820.0,186.6794919243112" fill="rgb(26,103,133)" stroke="none" />
<polygon points="860.0,204.0 850.0,221.32050807568876 830.0,221.32050807568876 820.0,204.0 830.0,186.67949192431124 850.0,186.6794919243112" fill="rgb(26,102,133)" stroke="none" />
<polygon points="890.0,204.0 880.0,221.32050807568876 860.0,221.32050807568876 850.0,204.0 860.0,186.67949192431124 880.0,186.6794919243112" fill="rgb(26,103,133)" stroke="none" />
<polygon points="35.0,238.0 25.0,255.32050807568876 5.0000000000000036,255.32050807568876 -5.0,238.0 4.999999999999991,220.67949192431124 24.999999999999986,220.6794919243112" fill="rgb(186,156,152)" stroke="none" />
<polygon points="65.0,238.0 55.0,255.32050807568876 35.0,255.32050807568876 25.0,238.0 34.99999999999999,220.67949192431124 54.999999999999986,220.6794919243112" fill="rgb(115,212,189)" stroke="none" />
<polygon points="95.0,238.0 85.0,255.32050807568876 65.0,255.32050807568876 55.0,238.0 64.99999999999999,220.67949192431124 84.99999999999999,220.6794919243112" fill="rgb(177,192,156)" stroke="none" />
<polygon points="125.0,238.0 115.0,255.32050807568876 95.0,255.32050807568876 85.0,238.0 94.99999999999999,220.67949192431124 114.99999999999999,220.6794919243112" fill="rgb(217,148,137)" stroke="none" />
<polygon points="155.0,238.0 145.0,255.32050807568876 125.0,255.32050807568876 115.0,238.0 124.99999999999999,220.67949192431124 145.0,220.6794919243112" fill="rgb(220,110,128)" stroke="none" />
<polygon points="185.0,238.0 175.0,255.32050807568876 155.0,255.32050807568876 145.0,238.0 155.0,220.67949192431124 175.0,220.6794919243112" fill="rgb(181,103,124)" stroke="none" />
<polygon points="215.0,238.0 205.0,255.32050807568876 185.0,255.32050807568876 175.0,238.0 185.0,220.67949192431124 205.0,220.6794919243112" fill="rgb(211,126,115)" stroke="none" />
<polygon points="245.0,238.0 235.0,255.32050807568876 215.0,255.32050807568876 205.0,238.0 215.0,220.67949192431124 235.0,220.6794919243112" fill="rgb(231,150,115)" stroke="none" />
<polygon points="275.0,238.0 265.0,255.32050807568876 245.0,255.32050807568876 235.0,238.0 245.0,220.67949192431124 265.0,220.6794919243112" fill="rgb(115,90,131)" stroke="none" />
<polygon points="305.0,238.0 295.0,255.32050807568876 275.0,255.32050807568876 265.0,238.0 275.0,220.67949192431124 295.0,220.6794919243112" fill="rgb(79,94,134)" stroke="none" />
<polygon points="335.0,238.0 325.0,255.32050807568876 305.0,255.32050807568876 295.0,238.0 305.0,220.67949192431124 325.0,220.6794919243112" fill="rgb(77,92,134)" stroke="none" />
<polygon points="365.0,238.0 355.0,255.32050807568876 335.0,255.32050807568876 325.0,238.0 335.0,220.67949192431124 355.0,220.6794919243112" fill="rgb(44,100,133)" stroke="none" />
<polygon points="395.0,238.0 385.0,255.32050807568876 365.0,255.32050807568876 355.0,238.0 365.0,220.67949192431124 385.0,220.6794919243112" fill="rgb(108,91,133)" stroke="none" />
<polygon points="425.0,238.0 415.0,255.32050807568876 395.0,255.32050807568876 385.0,238.0 395.0,220.67949192431124 415.0,220.6794919243112" fill="rgb(28,103,132)" stroke="none" />
<polygon points="455.0,238.0 445.0,255.32050807568876 425.0,255.32050807568876 415.0,238.0 425.0,220.67949192431124 445.0,220.6794919243112" fill="rgb(26,103,133)" stroke="none" />
<polygon points="485.0,238.0 475.0,255.32050807568876 455.0,255.32050807568876 445.0,238.0 455.0,220.67949192431124 475.0,220.6794919243112" fill="rgb(31,102,133)" stroke="none" />
<polygon points="515.0,238.0 505.0,255.32050807568876 485.0,255.32050807568876 475.0,238.0 485.0,220.67949192431124 505.0,220.6794919243112" fill="rgb(46,98,133)" stroke="none" />
<polygon points="545.0,238.0 535.0,255.32050807568876 515.0,255.32050807568876 505.0,238.0 515.0,220.67949192431124 535.0,220.6794919243112" fill="rgb(27,103,133)" stroke="none" />
<polygon points="575.0,238.0 565.0,255.32050807568876 545.0,255.32050807568876 535.0,238.0 545.0,220.67949192431124 565.0,220.6794919243112" fill="rgb(26,102,133)" stroke="none" />
<polygon points="605.0,238.0 595.0,255.32050807568876 575.0,255.32050807568876 565.0,238.0 575.0,220.67949192431124 595.0,220.6794919243112" fill="rgb(26,103,133)" stroke="none" />
<polygon points="635.0,238.0 625.0,255.32050807568876 605.0,255.32050807568876 595.0,238.0 605.0,220.67949192431124 625.0,220.6794919243112" fill="rgb(26,102,133)" stroke="none" />
<polygon points="665.0,238.0 655.0,255.32050807568876 635.0,255.32050807568876 625.0,238.0 635.0,220.67949192431124 655.0,220.6794919243112" fill="rgb(27,103,132)" stroke="none" />
<polygon points="695.0,238.0 685.0,255.32050807568876 665.0,255.32050807568876 655.0,238.0 665.0,220.67949192431124 685.0,220.6794919243112" fill="rgb(27,102,133)" stroke="none" />
<polygon points="725.0,238.0 715.0,255.32050807568876 695.0,255.32050807568876 685.0,238.0 695.0,220.67949192431124 715.0,220.6794919243112" fill="rgb(26,102,133)" stroke="none" />
<polygon points="755.0,238.0 745.0,255.32050807568876 725.0,255.32050807568876 715.0,238.0 725.0,220.67949192431124 745.0,220.6794919243112" fill="rgb(26,102,133)" stroke="none" />
<polygon points="785.0,238.0 775.0,255.32050807568876 755.0,255.32050807568876 745.0,238.0 755.0,220.67949192431124 775.0,220.6794919243112" fill="rgb(27,102,133)" stroke="none" />
<polygon points="815.0,238.0 805.0,255.32050807568876 785.0,255.32050807568876 775.0,238.0 785.0,220.67949192431124 805.0,220.6794919243112" fill="rgb(27,103,133)" stroke="none" />
<polygon points="845.0,238.0 835.0,255.32050807568876 815.0,255.32050807568876 805.0,238.0 815.0,220.67949192431124 835.0,220.6794919243112" fill="rgb(27,104,134)" stroke="none" />
<polygon points="875.0,238.0 865.0,255.32050807568876 845.0,255.32050807568876 835.0,238.0 845.0,220.67949192431124 865.0,220.6794919243112" fill="rgb(26,102,133)" stroke="none" />
<polygon points="905.0,238.0 895.0,255.32050807568876 875.0,255.32050807568876 865.0,238.0 875.0,220.67949192431124 895.0,220.6794919243112" fill="rgb(27,101,133)" stroke="none" />
<polygon points="20.0,272.0 10.000000000000002,289.3205080756888 -9.999999999999996,289.3205080756888 -20.0,272.0 -10.000000000000009,254.67949192431124 9.999999999999986,254.6794919243112" fill="rgb(217,135,135)" stroke="none" />
<polygon points="50.0,272.0 40.0,289.3205080756888 20.000000000000004,289.3205080756888 10.0,272.0 19.999999999999993,254.67949192431124 39.999999999999986,254.6794919243112" fill="rgb(222,148,132)" stroke="none" />
<polygon points="80.0,272.0 70.0,289.3205080756888 50.0,289.3205080756888 40.0,272.0 49.99999999999999,254.67949192431124 69.99999999999999,254.6794919243112" fill="rgb(237,158,113)" stroke="none" />
<polygon points="110.0,272.0 100.0,289.3205080756888 80.0,289.3205080756888 70.0,272.0 79.99999999999999,254.67949192431124 99.99999999999999,254.6794919243112" fill="rgb(249,158,106)" stroke="none" />
<polygon points="140.0,272.0 130.0,289.3205080756888 110.0,289.3205080756888 100.0,272.0 109.99999999999999,254.67949192431124 130.0,254.6794919243112" fill="rgb(249,120,117)" stroke="none" />
<polygon points="170.0,272.0 160.0,289.3205080756888 140.0,289.3205080756888 130.0,272.0 140.0,254.67949192431124 160.0,254.6794919243112" fill="rgb(234,102,125)" stroke="none" />
<polygon points="200.0,272.0 190.0,289.3205080756888 170.0,289.3205080756888 160.0,272.0 170.0,254.67949192431124 190.0,254.6794919243112" fill="rgb(130,99,129)" stroke="none" />
<polygon points="230.0,272.0 220.0,289.3205080756888 200.0,289.3205080756888 190.0,272.0 200.0,254.67949192431124 220.0,254.6794919243112" fill="rgb(161,90,126)" stroke="none" />
<polygon points="260.0,272.0 250.0,289.3205080756888 230.0,289.3205080756888 220.0,272.0 230.0,254.67949192431124 250.0,254.6794919243112" fill="rgb(224,98,120)" stroke="none" />
<polygon points="290.0,272.0 280.0,289.3205080756888 260.0,289.3205080756888 250.0,272.0 260.0,254.67949192431124 280.0,254.6794919243112" fill="rgb(179,95,123)" stroke="none" />
<polygon points="320.0,272.0 310.0,289.3205080756888 290.0,289.3205080756888 280.0,272.0 290.0,254.67949192431124 310.0,254.6794919243112" fill="rgb(69,95,132)" stroke="none" />
<polygon points="350.0,272.0 340.0,289.3205080756888 320.0,289.3205080756888 310.0,272.0 320.0,254.67949192431124 340.0,254.6794919243112" fill="rgb(26,102,133)" stroke="none" />
<polygon points="380.0,272.0 370.0,289.3205080756888 350.0,289.3205080756888 340.0,272.0 350.0,254.67949192431124 370.0,254.6794919243112" fill="rgb(27,103,133)" stroke="none" />
<polygon points="410.0,272.0 400.0,289.3205080756888 380.0,289.3205080756888 370.0,272.0 380.0,254.67949192431124 400.0,254.6794919243112" fill="rgb(35,102,132)" stroke="none" />
<polygon points="440.0,272.0 430.0,289.3205080756888 410.0,289.3205080756888 400.0,272.0 410.0,254.67949192431124 430.0,254.6794919243112" fill="rgb(27,104,134)" stroke="none" />
<polygon points="470.0,272.0 460.0,289.3205080756888 440.0,289.3205080756888 430.0,272.0 440.0,254.67949192431124 460.0,254.6794919243112" fill="rgb(27,104,134)" stroke="none" />
<polygon points="500.0,272.0 490.0,289.3205080756888 470.0,289.3205080756888 460.0,272.0 470.0,254.67949192431124 490.0,254.6794919243112" fill="rgb(26,103,133)" stroke="none" />
<polygon points="530.0,272.0 520.0,289.3205080756888 500.0,289.3205080756888 490.0,272.0 500.0,254.67949192431124 520.0,254.6794919243112" fill="rgb(26,103,133)" stroke="none" />
<polygon points="560.0,272.0 550.0,289.3205080756888 530.0,289.3205080756888 520.0,272.0 530.0,254.67949192431124 550.0,254.6794919243112" fill="rgb(27,103,133)" stroke="none" />
<polygon points="590.0,272.0 580.0,289.3205080756888 560.0,289.3205080756888 550.0,272.0 560.0,254.67949192431124 580.0,254.6794919243112" fill="rgb(27,104,134)" stroke="none" />
<polygon points="620.0,272.0 610.0,289.3205080756888 590.0,289.3205080756888 580.0,272.0 590.0,254.67949192431124 610.0,254.6794919243112" fill="rgb(26,103,133)" stroke="none" />
<polygon points="650.0,272.0 640.0,289.3205080756888 620.0,289.3205080756888 610.0,272.0 620.0,254.67949192431124 640.0,254.6794919243112" fill="rgb(26,102,132)" stroke="none" />
<polygon points="680.0,272.0 670.0,289.3205080756888 650.0,289.3205080756888 640.0,272.0 650.0,254.67949192431124 670.0,254.6794919243112" fill="rgb(31,101,132)" stroke="none" />
<polygon points="710.0,272.0 700.0,289.3205080756888 680.0,289.3205080756888 670.0,272.0 680.0,254.67949192431124 700.0,254.6794919243112" fill="rgb(27,103,133)" stroke="none" />
<polygon points="740.0,272.0 730.0,289.3205080756888 710.0,289.3205080756888 700.0,272.0 710.0,254.67949192431124 730.0,254.6794919243112" fill="rgb(27,103,133)" stroke="none" />
<polygon points="770.0,272.0 760.0,289.3205080756888 740.0,289.3205080756888 730.0,272.0 740.0,254.67949192431124 760.0,254.6794919243112" fill="rgb(26,103,133)" stroke="none" />
<polygon points="800.0,272.0 790.0,289.3205080756888 770.0,289.3205080756888 760.0,272.0 770.0,254.67949192431124 790.0,254.6794919243112" fill="rgb(26,103,133)" stroke="none" />
<polygon points="830.0,272.0 820.0,289.3205080756888 800.0,289.3205080756888 790.0,272.0 800.0,254.67949192431124 820.0,254.6794919243112" fill="rgb(26,103,134)" stroke="none" />
<polygon points="860.0,272.0 850.0,289.3205080756888 830.0,289.3205080756888 820.0,272.0 830.0,254.67949192431124 850.0,254.6794919243112" fill="rgb(26,103,133)" stroke="none" />
<polygon points="890.0,272.0 880.0,289.3205080756888 860.0,289.3205080756888 850.0,272.0 860.0,254.67949192431124 880.0,254.6794919243112" fill="rgb(26,102,133)" stroke="none" />
<polygon points="35.0,306.0 25.0,323.3205080756888 5.0000000000000036,323.3205080756888 -5.0,306.0 4.999999999999991,288.6794919243112 24.999999999999986,288.6794919243112" fill="rgb(243,130,119)" stroke="none" />
<polygon points="65.0,306.0 55.0,323.3205080756888 35.0,323.3205080756888 25.0,306.0 34.99999999999999,288.6794919243112 54.999999999999986,288.6794919243112" fill="rgb(248,116,118)" stroke="none" />
<polygon points="95.0,306.0 85.0,323.3205080756888 65.0,323.3205080756888 55.0,306.0 64.99999999999999,288.6794919243112 84.99999999999999,288.6794919243112" fill="rgb(249,110,115)" stroke="none" />
<polygon points="125.0,306.0 115.0,323.3205080756888 95.0,323.3205080756888 85.0,306.0 94.99999999999999,288.6794919243112 114.99999999999999,288.6794919243112" fill="rgb(252,128,117)" stroke="none" />
<polygon points="155.0,306.0 145.0,323.3205080756888 125.0,323.3205080756888 115.0,306.0 124.99999999999999,288.6794919243112 145.0,288.6794919243112" fill="rgb(186,95,123)" stroke="none" />
<polygon points="185.0,306.0 175.0,323.3205080756888 155.0,323.3205080756888 145.0,306.0 155.0,288.6794919243112 175.0,288.6794919243112" fill="rgb(126,93,127)" stroke="none" />
<polygon points="215.0,306.0 205.0,323.3205080756888 185.0,323.3205080756888 175.0,306.0 185.0,288.6794919243112 205.0,288.6794919243112" fill="rgb(113,90,133)" stroke="none" />
<polygon points="245.0,306.0 235.0,323.3205080756888 215.0,323.3205080756888 205.0,306.0 215.0,288.6794919243112 235.0,288.6794919243112" fill="rgb(138,92,130)" stroke="none" />
<polygon points="275.0,306.0 265.0,323.3205080756888 245.0,323.3205080756888 235.0,306.0 245.0,288.6794919243112 265.0,288.6794919243112" fill="rgb(92,89,132)" stroke="none" />
<polygon points="305.0,306.0 295.0,323.3205080756888 275.0,323.3205080756888 265.0,306.0 275.0,288.6794919243112 295.0,288.6794919243112" fill="rgb(97,91,133)" stroke="none" />
<polygon points="335.0,306.0 325.0,323.3205080756888 305.0,323.3205080756888 295.0,306.0 305.0,288.6794919243112 325.0,288.6794919243112" fill="rgb(55,97,134)" stroke="none" />
<polygon points="365.0,306.0 355.0,323.3205080756888 335.0,323.3205080756888 325.0,306.0 335.0,288.6794919243112 355.0,288.6794919243112" fill="rgb(27,102,133)" stroke="none" />
<polygon points="395.0,306.0 385.0,323.3205080756888 365.0,323.3205080756888 355.0,306.0 365.0,288.6794919243112 385.0,288.6794919243112" fill="rgb(27,104,134)" stroke="none" />
<polygon points="425.0,306.0 415.0,323.3205080756888 395.0,323.3205080756888 385.0,306.0 395.0,288.6794919243112 415.0,288.6794919243112" fill="rgb(27,103,133)" stroke="none" />
<polygon points="455.0,306.0 445.0,323.3205080756888 425.0,323.3205080756888 415.0,306.0 425.0,288.6794919243112 445.0,288.6794919243112" fill="rgb(27,104,134)" stroke="none" />
<polygon points="485.0,306.0 475.0,323.3205080756888 455.0,323.3205080756888 445.0,306.0 455.0,288.6794919243112 475.0,288.6794919243112" fill="rgb(27,104,134)" stroke="none" />
<polygon points="515.0,306.0 505.0,323.3205080756888 485.0,323.3205080756888 475.0,306.0 485.0,288.6794919243112 505.0,288.6794919243112" fill="rgb(26,103,133)" stroke="none" />
<polygon points="545.0,306.0 535.0,323.3205080756888 515.0,323.3205080756888 505.0,306.0 515.0,288.6794919243112 535.0,288.6794919243112" fill="rgb(26,103,133)" stroke="none" />
<polygon points="575.0,306.0 565.0,323.3205080756888 545.0,323.3205080756888 535.0,306.0 545.0,288.6794919243112 565.0,288.6794919243112" fill="rgb(27,103,133)" stroke="none" />
<polygon points="605.0,306.0 595.0,323.3205080756888 575.0,323.3205080756888 565.0,306.0 575.0,288.6794919243112 595.0,288.6794919243112" fill="rgb(27,104,134)" stroke="none" />
<polygon points="635.0,306.0 625.0,323.3205080756888 605.0,323.3205080756888 595.0,306.0 605.0,288.6794919243112 625.0,288.6794919243112" fill="rgb(26,102,133)" stroke="none" />
<polygon points="665.0,306.0 655.0,323.3205080756888 635.0,323.3205080756888 625.0,306.0 635.0,288.6794919243112 655.0,288.6794919243112" fill="rgb(27,102,133)" stroke="none" />
<polygon points="695.0,306.0 685.0,323.3205080756888 665.0,323.3205080756888 655.0,306.0 665.0,288.6794919243112 685.0,288.6794919243112" fill="rgb(27,102,133)" stroke="none" />
<polygon points="725.0,306.0 715.0,323.3205080756888 695.0,323.3205080756888 685.0,306.0 695.0,288.6794919243112 715.0,288.6794919243112" fill="rgb(26,102,133)" stroke="none" />
<polygon points="755.0,306.0 745.0,323.3205080756888 725.0,323.3205080756888 715.0,306.0 725.0,288.6794919243112 745.0,288.6794919243112" fill="rgb(27,104,134)" stroke="none" />
<polygon points="785.0,306.0 775.0,323.3205080756888 755.0,323.3205080756888 745.0,306.0 755.0,288.6794919243112 775.0,288.6794919243112" fill="rgb(26,102,133)" stroke="none" />
<polygon points="815.0,306.0 805.0,323.3205080756888 785.0,323.3205080756888 775.0,306.0 785.0,288.6794919243112 805.0,288.6794919243112" fill="rgb(29,103,133)" stroke="none" />
<polygon points="845.0,306.0 835.0,323.3205080756888 815.0,323.3205080756888 805.0,306.0 815.0,288.6794919243112 835.0,288.6794919243112" fill="rgb(26,103,133)" stroke="none" />
<polygon points="875.0,306.0 865.0,323.3205080756888 845.0,323.3205080756888 835.0,306.0 845.0,288.6794919243112 865.0,288.6794919243112" fill="rgb(26,103,133)" stroke="none" />
<polygon points="905.0,306.0 895.0,323.3205080756888 875.0,323.3205080756888 865.0,306.0 875.0,288.6794919243112 895.0,288.6794919243112" fill="rgb(26,103,133)" stroke="none" />
<polygon points="20.0,340.0 10.000000000000002,357.3205080756888 -9.999999999999996,357.3205080756888 -20.0,340.0 -10.000000000000009,322.6794919243112 9.999999999999986,322.6794919243112" fill="rgb(253,120,116)" stroke="none" />
<polygon points="50.0,340.0 40.0,357.3205080756888 20.000000000000004,357.3205080756888 10.0,340.0 19.999999999999993,322.6794919243112 39.999999999999986,322.6794919243112" fill="rgb(218,102,123)" stroke="none" />
<polygon points="80.0,340.0 70.0,357.3205080756888 50.0,357.3205080756888 40.0,340.0 49.99999999999999,322.6794919243112 69.99999999999999,322.6794919243112" fill="rgb(143,96,125)" stroke="none" />
<polygon points="110.0,340.0 100.0,357.3205080756888 80.0,357.3205080756888 70.0,340.0 79.99999999999999,322.6794919243112 99.99999999999999,322.6794919243112" fill="rgb(189,95,122)" stroke="none" />
<polygon points="140.0,340.0 130.0,357.3205080756888 110.0,357.3205080756888 100.0,340.0 109.99999999999999,322.6794919243112 130.0,322.6794919243112" fill="rgb(162,91,125)" stroke="none" />
<polygon points="170.0,340.0 160.0,357.3205080756888 140.0,357.3205080756888 130.0,340.0 140.0,322.6794919243112 160.0,322.6794919243112" fill="rgb(151,92,127)" stroke="none" />
<polygon points="200.0,340.0 190.0,357.3205080756888 170.0,357.3205080756888 160.0,340.0 170.0,322.6794919243112 190.0,322.6794919243112" fill="rgb(93,92,132)" stroke="none" />
<polygon points="230.0,340.0 220.0,357.3205080756888 200.0,357.3205080756888 190.0,340.0 200.0,322.6794919243112 220.0,322.6794919243112" fill="rgb(45,99,133)" stroke="none" />
<polygon points="260.0,340.0 250.0,357.3205080756888 230.0,357.3205080756888 220.0,340.0 230.0,322.6794919243112 250.0,322.6794919243112" fill="rgb(29,102,132)" stroke="none" />
<polygon points="290.0,340.0 280.0,357.3205080756888 260.0,357.3205080756888 250.0,340.0 260.0,322.6794919243112 280.0,322.6794919243112" fill="rgb(26,102,133)" stroke="none" />
<polygon points="320.0,340.0 310.0,357.3205080756888 290.0,357.3205080756888 280.0,340.0 290.0,322.6794919243112 310.0,322.6794919243112" fill="rgb(27,102,133)" stroke="none" />
<polygon points="350.0,340.0 340.0,357.3205080756888 320.0,357.3205080756888 310.0,340.0 320.0,322.6794919243112 340.0,322.6794919243112" fill="rgb(27,103,132)" stroke="none" />
<polygon points="380.0,340.0 370.0,357.3205080756888 350.0,357.3205080756888 340.0,340.0 350.0,322.6794919243112 370.0,322.6794919243112" fill="rgb(26,104,134)" stroke="none" />
<polygon points="410.0,340.0 400.0,357.3205080756888 380.0,357.3205080756888 370.0,340.0 380.0,322.6794919243112 400.0,322.6794919243112" fill="rgb(27,103,133)" stroke="none" />
<polygon points="440.0,340.0 430.0,357.3205080756888 410.0,357.3205080756888 400.0,340.0 410.0,322.6794919243112 430.0,322.6794919243112" fill="rgb(27,103,133)" stroke="none" />
<polygon points="470.0,340.0 460.0,357.3205080756888 440.0,357.3205080756888 430.0,340.0 440.0,322.6794919243112 460.0,322.6794919243112" fill="rgb(26,103,133)" stroke="none" />
<polygon points="500.0,340.0 490.0,357.3205080756888 470.0,357.3205080756888 460.0,340.0 470.0,322.6794919243112 490.0,322.6794919243112" fill="rgb(26,103,133)" stroke="none" />
<polygon points="530.0,340.0 520.0,357.3205080756888 500.0,357.3205080756888 490.0,340.0 500.0,322.6794919243112 520.0,322.6794919243112" fill="rgb(26,103,133)" stroke="none" />
<polygon points="560.0,340.0 550.0,357.3205080756888 530.0,357.3205080756888 520.0,340.0 530.0,322.6794919243112 550.0,322.6794919243112" fill="rgb(27,104,134)" stroke="none" />
<polygon points="590.0,340.0 580.0,357.3205080756888 560.0,357.3205080756888 550.0,340.0 560.0,322.6794919243112 580.0,322.6794919243112" fill="rgb(26,102,133)" stroke="none" />
<polygon points="620.0,340.0 610.0,357.3205080756888 590.0,357.3205080756888 580.0,340.0 590.0,322.6794919243112 610.0,322.6794919243112" fill="rgb(26,102,133)" stroke="none" />
<polygon points="650.0,340.0 640.0,357.3205080756888 620.0,357.3205080756888 610.0,340.0 620.0,322.6794919243112 640.0,322.6794919243112" fill="rgb(27,102,133)" stroke="none" />
<polygon points="680.0,340.0 670.0,357.3205080756888 650.0,357.3205080756888 640.0,340.0 650.0,322.6794919243112 670.0,322.6794919243112" fill="rgb(26,103,133)" stroke="none" />
<polygon points="710.0,340.0 700.0,357.3205080756888 680.0,357.3205080756888 670.0,340.0 680.0,322.6794919243112 700.0,322.6794919243112" fill="rgb(27,102,133)" stroke="none" />
<polygon points="740.0,340.0 730.0,357.3205080756888 710.0,357.3205080756888 700.0,340.0 710.0,322.6794919243112 730.0,322.6794919243112" fill="rgb(26,103,133)" stroke="none" />
<polygon points="770.0,340.0 760.0,357.3205080756888 740.0,357.3205080756888 730.0,340.0 740.0,322.6794919243112 760.0,322.6794919243112" fill="rgb(27,104,134)" stroke="none" />
<polygon points="800.0,340.0 790.0,357.3205080756888 770.0,357.3205080756888 760.0,340.0 770.0,322.6794919243112 790.0,322.6794919243112" fill="rgb(27,104,134)" stroke="none" />
<polygon points="830.0,340.0 820.0,357.3205080756888 800.0,357.3205080756888 790.0,340.0 800.0,322.6794919243112 820.0,322.6794919243112" fill="rgb(27,104,134)" stroke="none" />
<polygon points="860.0,340.0 850.0,357.3205080756888 830.0,357.3205080756888 820.0,340.0 830.0,322.6794919243112 850.0,322.6794919243112" fill="rgb(27,104,134)" stroke="none" />
<polygon points="890.0,340.0 880.0,357.3205080756888 860.0,357.3205080756888 850.0,340.0 860.0,322.6794919243112 880.0,322.6794919243112" fill="rgb(27,102,131)" stroke="none" />
<polygon points="35.0,374.0 25.0,391.3205080756888 5.0000000000000036,391.3205080756888 -5.0,374.0 4.999999999999991,356.6794919243112 24.999999999999986,356.6794919243112" fill="rgb(228,103,123)" stroke="none" />
<polygon points="65.0,374.0 55.0,391.3205080756888 35.0,391.3205080756888 25.0,374.0 34.99999999999999,356.6794919243112 54.999999999999986,356.6794919243112" fill="rgb(180,95,124)" stroke="none" />
<polygon points="95.0,374.0 85.0,391.3205080756888 65.0,391.3205080756888 55.0,374.0 64.99999999999999,356.6794919243112 84.99999999999999,356.6794919243112" fill="rgb(68,95,133)" stroke="none" />
<polygon points="125.0,374.0 115.0,391.3205080756888 95.0,391.3205080756888 85.0,374.0 94.99999999999999,356.6794919243112 114.99999999999999,356.6794919243112" fill="rgb(56,97,133)" stroke="none" />
<polygon points="155.0,374.0 145.0,391.3205080756888 125.0,391.3205080756888 115.0,374.0 124.99999999999999,356.6794919243112 145.0,356.6794919243112" fill="rgb(114,85,133)" stroke="none" />
<polygon points="185.0,374.0 175.0,391.3205080756888 155.0,391.3205080756888 145.0,374.0 155.0,356.6794919243112 175.0,356.6794919243112" fill="rgb(62,94,132)" stroke="none" />
<polygon points="215.0,374.0 205.0,391.3205080756888 185.0,391.3205080756888 175.0,374.0 185.0,356.6794919243112 205.0,356.6794919243112" fill="rgb(69,92,133)" stroke="none" />
<polygon points="245.0,374.0 235.0,391.3205080756888 215.0,391.3205080756888 205.0,374.0 215.0,356.6794919243112 235.0,356.6794919243112" fill="rgb(27,102,133)" stroke="none" />
<polygon points="275.0,374.0 265.0,391.3205080756888 245.0,391.3205080756888 235.0,374.0 245.0,356.6794919243112 265.0,356.6794919243112" fill="rgb(26,103,133)" stroke="none" />
<polygon points="305.0,374.0 295.0,391.3205080756888 275.0,391.3205080756888 265.0,374.0 275.0,356.6794919243112 295.0,356.6794919243112" fill="rgb(27,104,134)" stroke="none" />
<polygon points="335.0,374.0 325.0,391.3205080756888 305.0,391.3205080756888 295.0,374.0 305.0,356.6794919243112 325.0,356.6794919243112" fill="rgb(27,103,133)" stroke="none" />
<polygon points="365.0,374.0 355.0,391.3205080756888 335.0,391.3205080756888 325.0,374.0 335.0,356.6794919243112 355.0,356.6794919243112" fill="rgb(27,103,134)" stroke="none" />
<polygon points="395.0,374.0 385.0,391.3205080756888 365.0,391.3205080756888 355.0,374.0 365.0,356.6794919243112 385.0,356.6794919243112" fill="rgb(26,102,133)" stroke="none" />
<polygon points="425.0,374.0 415.0,391.3205080756888 395.0,391.3205080756888 385.0,374.0 395.0,356.6794919243112 415.0,356.6794919243112" fill="rgb(27,104,134)" stroke="none" />
<polygon points="455.0,374.0 445.0,391.3205080756888 425.0,391.3205080756888 415.0,374.0 425.0,356.6794919243112 445.0,356.6794919243112" fill="rgb(26,103,133)" stroke="none" />
<polygon points="485.0,374.0 475.0,391.3205080756888 455.0,391.3205080756888 445.0,374.0 455.0,356.6794919243112 475.0,356.6794919243112" fill="rgb(27,103,133)" stroke="none" />
<polygon points="515.0,374.0 505.0,391.3205080756888 485.0,391.3205080756888 475.0,374.0 485.0,356.6794919243112 505.0,356.6794919243112" fill="rgb(27,102,132)" stroke="none" />
<polygon points="545.0,374.0 535.0,391.3205080756888 515.0,391.3205080756888 505.0,374.0 515.0,356.6794919243112 535.0,356.6794919243112" fill="rgb(26,103,134)" stroke="none" />
<polygon points="575.0,374.0 565.0,391.3205080756888 545.0,391.3205080756888 535.0,374.0 545.0,356.6794919243112 565.0,356.6794919243112" fill="rgb(26,103,133)" stroke="none" />
<polygon points="605.0,374.0 595.0,391.3205080756888 575.0,391.3205080756888 565.0,374.0 575.0,356.6794919243112 595.0,356.6794919243112" fill="rgb(27,102,133)" stroke="none" />
<polygon points="635.0,374.0 625.0,391.3205080756888 605.0,391.3205080756888 595.0,374.0 605.0,356.6794919243112 625.0,356.6794919243112" fill="rgb(26,103,133)" stroke="none" />
<polygon points="665.0,374.0 655.0,391.3205080756888 635.0,391.3205080756888 625.0,374.0 635.0,356.6794919243112 655.0,356.6794919243112" fill="rgb(27,102,133)" stroke="none" />
<polygon points="695.0,374.0 685.0,391.3205080756888 665.0,391.3205080756888 655.0,374.0 665.0,356.6794919243112 685.0,356.6794919243112" fill="rgb(27,102,133)" stroke="none" />
<polygon points="725.0,374.0 715.0,391.3205080756888 695.0,391.3205080756888 685.0,374.0 695.0,356.6794919243112 715.0,356.6794919243112" fill="rgb(27,103,133)" stroke="none" />
<polygon points="755.0,374.0 745.0,391.3205080756888 725.0,391.3205080756888 715.0,374.0 725.0,356.6794919243112 745.0,356.6794919243112" fill="rgb(30,102,132)" stroke="none" />
<polygon points="785.0,374.0 775.0,391.3205080756888 755.0,391.3205080756888 745.0,374.0 755.0,356.6794919243112 775.0,356.6794919243112" fill="rgb(26,103,133)" stroke="none" />
<polygon points="815.0,374.0 805.0,391.3205080756888 785.0,391.3205080756888 775.0,374.0 785.0,356.6794919243112 805.0,356.6794919243112" fill="rgb(27,103,133)" stroke="none" />
<polygon points="845.0,374.0 835.0,391.3205080756888 815.0,391.3205080756888 805.0,374.0 815.0,356.6794919243112 835.0,356.6794919243112" fill="rgb(26,103,133)" stroke="none" />
<polygon points="875.0,374.0 865.0,391.3205080756888 845.0,391.3205080756888 835.0,374.0 845.0,356.6794919243112 865.0,356.6794919243112" fill="rgb(27,101,133)" stroke="none" />
<polygon points="905.0,374.0 895.0,391.3205080756888 875.0,391.3205080756888 865.0,374.0 875.0,356.6794919243112 895.0,356.6794919243112" fill="rgb(25,103,133)" stroke="none" />
<polygon points="20.0,408.0 10.000000000000002,425.3205080756888 -9.999999999999996,425.3205080756888 -20.0,408.0 -10.000000000000009,390.6794919243112 9.999999999999986,390.6794919243112" fill="rgb(180,97,121)" stroke="none" />
<polygon points="50.0,408.0 40.0,425.3205080756888 20.000000000000004,425.3205080756888 10.0,408.0 19.999999999999993,390.6794919243112 39.999999999999986,390.6794919243112" fill="rgb(113,96,129)" stroke="none" />
<polygon points="80.0,408.0 70.0,425.3205080756888 50.0,425.3205080756888 40.0,408.0 49.99999999999999,390.6794919243112 69.99999999999999,390.6794919243112" fill="rgb(82,95,131)" stroke="none" />
<polygon points="110.0,408.0 100.0,425.3205080756888 80.0,425.3205080756888 70.0,408.0 79.99999999999999,390.6794919243112 99.99999999999999,390.6794919243112" fill="rgb(58,97,132)" stroke="none" />
<polygon points="140.0,408.0 130.0,425.3205080756888 110.0,425.3205080756888 100.0,408.0 109.99999999999999,390.6794919243112 130.0,390.6794919243112" fill="rgb(56,96,134)" stroke="none" />
<polygon points="170.0,408.0 160.0,425.3205080756888 140.0,425.3205080756888 130.0,408.0 140.0,390.6794919243112 160.0,390.6794919243112" fill="rgb(58,96,134)" stroke="none" />
<polygon points="200.0,408.0 190.0,425.3205080756888 170.0,425.3205080756888 160.0,408.0 170.0,390.6794919243112 190.0,390.6794919243112" fill="rgb(39,100,132)" stroke="none" />
<polygon points="230.0,408.0 220.0,425.3205080756888 200.0,425.3205080756888 190.0,408.0 200.0,390.6794919243112 220.0,390.6794919243112" fill="rgb(27,102,133)" stroke="none" />
<polygon points="260.0,408.0 250.0,425.3205080756888 230.0,425.3205080756888 220.0,408.0 230.0,390.6794919243112 250.0,390.6794919243112" fill="rgb(26,102,133)" stroke="none" />
<polygon points="290.0,408.0 280.0,425.3205080756888 260.0,425.3205080756888 250.0,408.0 260.0,390.6794919243112 280.0,390.6794919243112" fill="rgb(26,103,133)" stroke="none" />
<polygon points="320.0,408.0 310.0,425.3205080756888 290.0,425.3205080756888 280.0,408.0 290.0,390.6794919243112 310.0,390.6794919243112" fill="rgb(27,104,134)" stroke="none" />
<polygon points="350.0,408.0 340.0,425.3205080756888 320.0,425.3205080756888 310.0,408.0 320.0,390.6794919243112 340.0,390.6794919243112" fill="rgb(27,103,133)" stroke="none" />
<polygon points="380.0,408.0 370.0,425.3205080756888 350.0,425.3205080756888 340.0,408.0 350.0,390.6794919243112 370.0,390.6794919243112" fill="rgb(26,104,134)" stroke="none" />
<polygon points="410.0,408.0 400.0,425.3205080756888 380.0,425.3205080756888 370.0,408.0 380.0,390.6794919243112 400.0,390.6794919243112" fill="rgb(27,104,134)" stroke="none" />
<polygon points="440.0,408.0 430.0,425.3205080756888 410.0,425.3205080756888 400.0,408.0 410.0,390.6794919243112 430.0,390.6794919243112" fill="rgb(26,103,133)" stroke="none" />
<polygon points="470.0,408.0 460.0,425.3205080756888 440.0,425.3205080756888 430.0,408.0 440.0,390.6794919243112 460.0,390.6794919243112" fill="rgb(27,102,133)" stroke="none" />
<polygon points="500.0,408.0 490.0,425.3205080756888 470.0,425.3205080756888 460.0,408.0 470.0,390.6794919243112 490.0,390.6794919243112" fill="rgb(27,103,133)" stroke="none" />
<polygon points="530.0,408.0 520.0,425.3205080756888 500.0,425.3205080756888 490.0,408.0 500.0,390.6794919243112 520.0,390.6794919243112" fill="rgb(27,103,133)" stroke="none" />
<polygon points="560.0,408.0 550.0,425.3205080756888 530.0,425.3205080756888 520.0,408.0 530.0,390.6794919243112 550.0,390.6794919243112" fill="rgb(27,103,133)" stroke="none" />
<polygon points="590.0,408.0 580.0,425.3205080756888 560.0,425.3205080756888 550.0,408.0 560.0,390.6794919243112 580.0,390.6794919243112" fill="rgb(26,103,133)" stroke="none" />
<polygon points="620.0,408.0 610.0,425.3205080756888 590.0,425.3205080756888 580.0,408.0 590.0,390.6794919243112 610.0,390.6794919243112" fill="rgb(26,102,133)" stroke="none" />
<polygon points="650.0,408.0 640.0,425.3205080756888 620.0,425.3205080756888 610.0,408.0 620.0,390.6794919243112 640.0,390.6794919243112" fill="rgb(26,102,133)" stroke="none" />
<polygon points="680.0,408.0 670.0,425.3205080756888 650.0,425.3205080756888 640.0,408.0 650.0,390.6794919243112 670.0,390.6794919243112" fill="rgb(26,103,133)" stroke="none" />
<polygon points="710.0,408.0 700.0,425.3205080756888 680.0,425.3205080756888 670.0,408.0 680.0,390.6794919243112 700.0,390.6794919243112" fill="rgb(27,104,134)" stroke="none" />
<polygon points="740.0,408.0 730.0,425.3205080756888 710.0,425.3205080756888 700.0,408.0 710.0,390.6794919243112 730.0,390.6794919243112" fill="rgb(26,103,133)" stroke="none" />
<polygon points="770.0,408.0 760.0,425.3205080756888 740.0,425.3205080756888 730.0,408.0 740.0,390.6794919243112 760.0,390.6794919243112" fill="rgb(26,103,133)" stroke="none" />
<polygon points="800.0,408.0 790.0,425.3205080756888 770.0,425.3205080756888 760.0,408.0 770.0,390.6794919243112 790.0,390.6794919243112" fill="rgb(27,102,133)" stroke="none" />
<polygon points="830.0,408.0 820.0,425.3205080756888 800.0,425.3205080756888 790.0,408.0 800.0,390.6794919243112 820.0,390.6794919243112" fill="rgb(26,102,133)" stroke="none" />
<polygon points="860.0,408.0 850.0,425.3205080756888 830.0,425.3205080756888 820.0,408.0 830.0,390.6794919243112 850.0,390.6794919243112" fill="rgb(27,102,133)" stroke="none" />
<polygon points="890.0,408.0 880.0,425.3205080756888 860.0,425.3205080756888 850.0,408.0 860.0,390.6794919243112 880.0,390.6794919243112" fill="rgb(27,102,133)" stroke="none" />
<polygon points="35.0,442.0 25.0,459.3205080756888 5.0000000000000036,459.3205080756888 -5.0,442.0 4.999999999999991,424.6794919243112 24.999999999999986,424.6794919243112" fill="rgb(118,89,131)" stroke="none" />
<polygon points="65.0,442.0 55.0,459.3205080756888 35.0,459.3205080756888 25.0,442.0 34.99999999999999,424.6794919243112 54.999999999999986,424.6794919243112" fill="rgb(36,100,132)" stroke="none" />
<polygon points="95.0,442.0 85.0,459.3205080756888 65.0,459.3205080756888 55.0,442.0 64.99999999999999,424.6794919243112 84.99999999999999,424.6794919243112" fill="rgb(27,102,132)" stroke="none" />
<polygon points="125.0,442.0 115.0,459.3205080756888 95.0,459.3205080756888 85.0,442.0 94.99999999999999,424.6794919243112 114.99999999999999,424.6794919243112" fill="rgb(27,102,132)" stroke="none" />
<polygon points="155.0,442.0 145.0,459.3205080756888 125.0,459.3205080756888 115.0,442.0 124.99999999999999,424.6794919243112 145.0,424.6794919243112" fill="rgb(27,103,133)" stroke="none" />
<polygon points="185.0,442.0 175.0,459.3205080756888 155.0,459.3205080756888 145.0,442.0 155.0,424.6794919243112 175.0,424.6794919243112" fill="rgb(31,101,133)" stroke="none" />
<polygon points="215.0,442.0 205.0,459.3205080756888 185.0,459.3205080756888 175.0,442.0 185.0,424.6794919243112 205.0,424.6794919243112" fill="rgb(26,104,134)" stroke="none" />
<polygon points="245.0,442.0 235.0,459.3205080756888 215.0,459.3205080756888 205.0,442.0 215.0,424.6794919243112 235.0,424.6794919243112" fill="rgb(27,104,134)" stroke="none" />
<polygon points="275.0,442.0 265.0,459.3205080756888 245.0,459.3205080756888 235.0,442.0 245.0,424.6794919243112 265.0,424.6794919243112" fill="rgb(27,104,134)" stroke="none" />
<polygon points="305.0,442.0 295.0,459.3205080756888 275.0,459.3205080756888 265.0,442.0 275.0,424.6794919243112 295.0,424.6794919243112" fill="rgb(27,104,134)" stroke="none" />
<polygon points="335.0,442.0 325.0,459.3205080756888 305.0,459.3205080756888 295.0,442.0 305.0,424.6794919243112 325.0,424.6794919243112" fill="rgb(27,104,134)" stroke="none" />
<polygon points="365.0,442.0 355.0,459.3205080756888 335.0,459.3205080756888 325.0,442.0 335.0,424.6794919243112 355.0,424.6794919243112" fill="rgb(26,103,133)" stroke="none" />
<polygon points="395.0,442.0 385.0,459.3205080756888 365.0,459.3205080756888 355.0,442.0 365.0,424.6794919243112 385.0,424.6794919243112" fill="rgb(27,103,133)" stroke="none" />
<polygon points="425.0,442.0 415.0,459.3205080756888 395.0,459.3205080756888 385.0,442.0 395.0,424.6794919243112 415.0,424.6794919243112" fill="rgb(26,103,133)" stroke="none" />
<polygon points="455.0,442.0 445.0,459.3205080756888 425.0,459.3205080756888 415.0,442.0 425.0,424.6794919243112 445.0,424.6794919243112" fill="rgb(26,102,133)" stroke="none" />
<polygon points="485.0,442.0 475.0,459.3205080756888 455.0,459.3205080756888 445.0,442.0 455.0,424.6794919243112 475.0,424.6794919243112" fill="rgb(26,102,133)" stroke="none" />
<polygon points="515.0,442.0 505.0,459.3205080756888 485.0,459.3205080756888 475.0,442.0 485.0,424.6794919243112 505.0,424.6794919243112" fill="rgb(26,103,133)" stroke="none" />
<polygon points="545.0,442.0 535.0,459.3205080756888 515.0,459.3205080756888 505.0,442.0 515.0,424.6794919243112 535.0,424.6794919243112" fill="rgb(27,103,133)" stroke="none" />
<polygon points="575.0,442.0 565.0,459.3205080756888 545.0,459.3205080756888 535.0,442.0 545.0,424.6794919243112 565.0,424.6794919243112" fill="rgb(27,102,133)" stroke="none" />
<polygon points="605.0,442.0 595.0,459.3205080756888 575.0,459.3205080756888 565.0,442.0 575.0,424.6794919243112 595.0,424.6794919243112" fill="rgb(26,103,133)" stroke="none" />
<polygon points="635.0,442.0 625.0,459.3205080756888 605.0,459.3205080756888 595.0,442.0 605.0,424.6794919243112 625.0,424.6794919243112" fill="rgb(26,103,133)" stroke="none" />
<polygon points="665.0,442.0 655.0,459.3205080756888 635.0,459.3205080756888 625.0,442.0 635.0,424.6794919243112 655.0,424.6794919243112" fill="rgb(27,103,133)" stroke="none" />
<polygon points="695.0,442.0 685.0,459.3205080756888 665.0,459.3205080756888 655.0,442.0 665.0,424.6794919243112 685.0,424.6794919243112" fill="rgb(27,104,134)" stroke="none" />
<polygon points="725.0,442.0 715.0,459.3205080756888 695.0,459.3205080756888 685.0,442.0 695.0,424.6794919243112 715.0,424.6794919243112" fill="rgb(27,104,134)" stroke="none" />
<polygon points="755.0,442.0 745.0,459.3205080756888 725.0,459.3205080756888 715.0,442.0 725.0,424.6794919243112 745.0,424.6794919243112" fill="rgb(27,104,134)" stroke="none" />
<polygon points="785.0,442.0 775.0,459.3205080756888 755.0,459.3205080756888 745.0,442.0 755.0,424.6794919243112 775.0,424.6794919243112" fill="rgb(26,103,133)" stroke="none" />
<polygon points="815.0,442.0 805.0,459.3205080756888 785.0,459.3205080756888 775.0,442.0 785.0,424.6794919243112 805.0,424.6794919243112" fill="rgb(27,102,133)" stroke="none" />
<polygon points="845.0,442.0 835.0,459.3205080756888 815.0,459.3205080756888 805.0,442.0 815.0,424.6794919243112 835.0,424.6794919243112" fill="rgb(27,102,133)" stroke="none" />
<polygon points="875.0,442.0 865.0,459.3205080756888 845.0,459.3205080756888 835.0,442.0 845.0,424.6794919243112 865.0,424.6794919243112" fill="rgb(27,102,133)" stroke="none" />
<polygon points="905.0,442.0 895.0,459.3205080756888 875.0,459.3205080756888 865.0,442.0 875.0,424.6794919243112 895.0,424.6794919243112" fill="rgb(26,104,134)" stroke="none" />
<polygon points="20.0,476.0 10.000000000000002,493.3205080756888 -9.999999999999996,493.3205080756888 -20.0,476.0 -10.000000000000009,458.6794919243112 9.999999999999986,458.6794919243112" fill="rgb(85,91,135)" stroke="none" />
<polygon points="50.0,476.0 40.0,493.3205080756888 20.000000000000004,493.3205080756888 10.0,476.0 19.999999999999993,458.6794919243112 39.999999999999986,458.6794919243112" fill="rgb(28,102,133)" stroke="none" />
<polygon points="80.0,476.0 70.0,493.3205080756888 50.0,493.3205080756888 40.0,476.0 49.99999999999999,458.6794919243112 69.99999999999999,458.6794919243112" fill="rgb(26,104,134)" stroke="none" />
<polygon points="110.0,476.0 100.0,493.3205080756888 80.0,493.3205080756888 70.0,476.0 79.99999999999999,458.6794919243112 99.99999999999999,458.6794919243112" fill="rgb(26,102,133)" stroke="none" />
<polygon points="140.0,476.0 130.0,493.3205080756888 110.0,493.3205080756888 100.0,476.0 109.99999999999999,458.6794919243112 130.0,458.6794919243112" fill="rgb(27,103,133)" stroke="none" />
<polygon points="170.0,476.0 160.0,493.3205080756888 140.0,493.3205080756888 130.0,476.0 140.0,458.6794919243112 160.0,458.6794919243112" fill="rgb(27,103,132)" stroke="none" />
<polygon points="200.0,476.0 190.0,493.3205080756888 170.0,493.3205080756888 160.0,476.0 170.0,458.6794919243112 190.0,458.6794919243112" fill="rgb(27,102,132)" stroke="none" />
<polygon points="230.0,476.0 220.0,493.3205080756888 200.0,493.3205080756888 190.0,476.0 200.0,458.6794919243112 220.0,458.6794919243112" fill="rgb(27,102,133)" stroke="none" />
<polygon points="260.0,476.0 250.0,493.3205080756888 230.0,493.3205080756888 220.0,476.0 230.0,458.6794919243112 250.0,458.6794919243112" fill="rgb(27,104,134)" stroke="none" />
<polygon points="290.0,476.0 280.0,493.3205080756888 260.0,493.3205080756888 250.0,476.0 260.0,458.6794919243112 280.0,458.6794919243112" fill="rgb(26,102,133)" stroke="none" />
<polygon points="320.0,476.0 310.0,493.3205080756888 290.0,493.3205080756888 280.0,476.0 290.0,458.6794919243112 310.0,458.6794919243112" fill="rgb(26,103,133)" stroke="none" />
<polygon points="350.0,476.0 340.0,493.3205080756888 320.0,493.3205080756888 310.0,476.0 320.0,458.6794919243112 340.0,458.6794919243112" fill="rgb(27,102,133)" stroke="none" />
<polygon points="380.0,476.0 370.0,493.3205080756888 350.0,493.3205080756888 340.0,476.0 350.0,458.6794919243112 370.0,458.6794919243112" fill="rgb(27,102,133)" stroke="none" />
<polygon points="410.0,476.0 400.0,493.3205080756888 380.0,493.3205080756888 370.0,476.0 380.0,458.6794919243112 400.0,458.6794919243112" fill="rgb(26,103,133)" stroke="none" />
<polygon points="440.0,476.0 430.0,493.3205080756888 410.0,493.3205080756888 400.0,476.0 410.0,458.6794919243112 430.0,458.6794919243112" fill="rgb(26,103,133)" stroke="none" />
<polygon points="470.0,476.0 460.0,493.3205080756888 440.0,493.3205080756888 430.0,476.0 440.0,458.6794919243112 460.0,458.6794919243112" fill="rgb(26,103,133)" stroke="none" />
<polygon points="500.0,476.0 490.0,493.3205080756888 470.0,493.3205080756888 460.0,476.0 470.0,458.6794919243112 490.0,458.6794919243112" fill="rgb(27,102,133)" stroke="none" />
<polygon points="530.0,476.0 520.0,493.3205080756888 500.0,493.3205080756888 490.0,476.0 500.0,458.6794919243112 520.0,458.6794919243112" fill="rgb(27,104,134)" stroke="none" />
<polygon points="560.0,476.0 550.0,493.3205080756888 530.0,493.3205080756888 520.0,476.0 530.0,458.6794919243112 550.0,458.6794919243112" fill="rgb(27,104,134)" stroke="none" />
<polygon points="590.0,476.0 580.0,493.3205080756888 560.0,493.3205080756888 550.0,476.0 560.0,458.6794919243112 580.0,458.6794919243112" fill="rgb(27,104,134)" stroke="none" />
<polygon points="620.0,476.0 610.0,493.3205080756888 590.0,493.3205080756888 580.0,476.0 590.0,458.6794919243112 610.0,458.6794919243112" fill="rgb(27,104,134)" stroke="none" />
<polygon points="650.0,476.0 640.0,493.3205080756888 620.0,493.3205080756888 610.0,476.0 620.0,458.6794919243112 640.0,458.6794919243112" fill="rgb(27,104,134)" stroke="none" />
<polygon points="680.0,476.0 670.0,493.3205080756888 650.0,493.3205080756888 640.0,476.0 650.0,458.6794919243112 670.0,458.6794919243112" fill="rgb(26,102,133)" stroke="none" />
<polygon points="710.0,476.0 700.0,493.3205080756888 680.0,493.3205080756888 670.0,476.0 680.0,458.6794919243112 700.0,458.6794919243112" fill="rgb(27,104,134)" stroke="none" />
<polygon points="740.0,476.0 730.0,493.3205080756888 710.0,493.3205080756888 700.0,476.0 710.0,458.6794919243112 730.0,458.6794919243112" fill="rgb(27,104,134)" stroke="none" />
<polygon points="770.0,476.0 760.0,493.3205080756888 740.0,493.3205080756888 730.0,476.0 740.0,458.6794919243112 760.0,458.6794919243112" fill="rgb(27,104,134)" stroke="none" />
<polygon points="800.0,476.0 790.0,493.3205080756888 770.0,493.3205080756888 760.0,476.0 770.0,458.6794919243112 790.0,458.6794919243112" fill="rgb(27,104,134)" stroke="none" />
<polygon points="830.0,476.0 820.0,493.3205080756888 800.0,493.3205080756888 790.0,476.0 800.0,458.6794919243112 820.0,458.6794919243112" fill="rgb(26,102,133)" stroke="none" />
<polygon points="860.0,476.0 850.0,493.3205080756888 830.0,493.3205080756888 820.0,476.0 830.0,458.6794919243112 850.0,458.6794919243112" fill="rgb(27,102,133)" stroke="none" />
<polygon points="890.0,476.0 880.0,493.3205080756888 860.0,493.3205080756888 850.0,476.0 860.0,458.6794919243112 880.0,458.6794919243112" fill="rgb(27,102,132)" stroke="none" />
</svg>